<mxfile host="app.diagrams.net" modified="2024-07-04T07:27:15.635Z" agent="Mozilla/5.0 (Windows NT 10.0; Win64; x64) AppleWebKit/537.36 (KHTML, like Gecko) Chrome/126.0.0.0 Safari/537.36" etag="4l549NErJvVeTZ4dQLsh" version="24.6.4" type="device">
  <diagram name="Page-1" id="NISw17zTtBP0fztpn8cr">
    <mxGraphModel dx="5489" dy="2700" grid="1" gridSize="10" guides="1" tooltips="1" connect="1" arrows="1" fold="1" page="0" pageScale="1" pageWidth="827" pageHeight="1169" math="0" shadow="0">
      <root>
        <mxCell id="0" />
        <mxCell id="1" parent="0" />
        <mxCell id="knydgiYS4Ji25U2NsumB-1" value="A?" style="rounded=0;whiteSpace=wrap;html=1;" parent="1" vertex="1">
          <mxGeometry x="-140" y="-30" width="40" height="20" as="geometry" />
        </mxCell>
        <mxCell id="knydgiYS4Ji25U2NsumB-21" value="-&amp;gt;" style="rounded=0;whiteSpace=wrap;html=1;strokeColor=default;align=center;verticalAlign=middle;fontFamily=Helvetica;fontSize=12;fontColor=default;fillColor=default;" parent="1" vertex="1">
          <mxGeometry x="-260" y="60" width="40" height="20" as="geometry" />
        </mxCell>
        <mxCell id="knydgiYS4Ji25U2NsumB-23" value="A?" style="rounded=0;whiteSpace=wrap;html=1;strokeColor=default;align=center;verticalAlign=middle;fontFamily=Helvetica;fontSize=12;fontColor=default;fillColor=default;" parent="1" vertex="1">
          <mxGeometry x="-280" y="210" width="40" height="20" as="geometry" />
        </mxCell>
        <mxCell id="knydgiYS4Ji25U2NsumB-31" value="" style="endArrow=classic;html=1;rounded=0;fontFamily=Helvetica;fontSize=12;fontColor=default;exitX=0.5;exitY=1;exitDx=0;exitDy=0;entryX=0.5;entryY=0;entryDx=0;entryDy=0;" parent="1" source="knydgiYS4Ji25U2NsumB-21" target="knydgiYS4Ji25U2NsumB-23" edge="1">
          <mxGeometry width="50" height="50" relative="1" as="geometry">
            <mxPoint x="230" y="80" as="sourcePoint" />
            <mxPoint x="280" y="30" as="targetPoint" />
          </mxGeometry>
        </mxCell>
        <mxCell id="knydgiYS4Ji25U2NsumB-32" value="" style="endArrow=classic;html=1;rounded=0;fontFamily=Helvetica;fontSize=12;fontColor=default;exitX=0.5;exitY=1;exitDx=0;exitDy=0;" parent="1" source="knydgiYS4Ji25U2NsumB-23" target="knydgiYS4Ji25U2NsumB-70" edge="1">
          <mxGeometry width="50" height="50" relative="1" as="geometry">
            <mxPoint x="310" y="225" as="sourcePoint" />
            <mxPoint x="142.18800784900918" y="248.35899411324294" as="targetPoint" />
          </mxGeometry>
        </mxCell>
        <mxCell id="knydgiYS4Ji25U2NsumB-33" value="" style="endArrow=classic;html=1;rounded=0;fontFamily=Helvetica;fontSize=12;fontColor=default;exitX=0.5;exitY=1;exitDx=0;exitDy=0;entryX=0.5;entryY=0;entryDx=0;entryDy=0;" parent="1" source="knydgiYS4Ji25U2NsumB-70" target="knydgiYS4Ji25U2NsumB-86" edge="1">
          <mxGeometry width="50" height="50" relative="1" as="geometry">
            <mxPoint x="-200.79999999999995" y="363.1199999999999" as="sourcePoint" />
            <mxPoint x="-230" y="455" as="targetPoint" />
          </mxGeometry>
        </mxCell>
        <mxCell id="knydgiYS4Ji25U2NsumB-34" value="" style="endArrow=classic;html=1;rounded=0;fontFamily=Helvetica;fontSize=12;fontColor=default;exitX=0.5;exitY=1;exitDx=0;exitDy=0;entryX=0.5;entryY=0;entryDx=0;entryDy=0;" parent="1" source="knydgiYS4Ji25U2NsumB-23" target="QgS4EuOUHzCmb0cSX-AT-5" edge="1">
          <mxGeometry width="50" height="50" relative="1" as="geometry">
            <mxPoint x="310" y="225" as="sourcePoint" />
            <mxPoint x="28.57142857142844" y="335.0000000000002" as="targetPoint" />
          </mxGeometry>
        </mxCell>
        <mxCell id="knydgiYS4Ji25U2NsumB-35" value="?" style="rounded=0;whiteSpace=wrap;html=1;strokeColor=default;align=center;verticalAlign=middle;fontFamily=Helvetica;fontSize=12;fontColor=default;fillColor=default;" parent="1" vertex="1">
          <mxGeometry x="240" y="190" width="40" height="20" as="geometry" />
        </mxCell>
        <mxCell id="knydgiYS4Ji25U2NsumB-36" value="" style="endArrow=classic;html=1;rounded=0;fontFamily=Helvetica;fontSize=12;fontColor=default;entryX=0.75;entryY=0;entryDx=0;entryDy=0;exitX=0.25;exitY=1;exitDx=0;exitDy=0;" parent="1" source="knydgiYS4Ji25U2NsumB-21" target="knydgiYS4Ji25U2NsumB-35" edge="1">
          <mxGeometry width="50" height="50" relative="1" as="geometry">
            <mxPoint x="230" y="30" as="sourcePoint" />
            <mxPoint x="360" y="130" as="targetPoint" />
          </mxGeometry>
        </mxCell>
        <mxCell id="knydgiYS4Ji25U2NsumB-39" value="" style="endArrow=classic;html=1;rounded=0;fontFamily=Helvetica;fontSize=12;fontColor=default;exitX=0.5;exitY=1;exitDx=0;exitDy=0;entryX=0.5;entryY=0;entryDx=0;entryDy=0;" parent="1" source="knydgiYS4Ji25U2NsumB-35" target="knydgiYS4Ji25U2NsumB-74" edge="1">
          <mxGeometry width="50" height="50" relative="1" as="geometry">
            <mxPoint x="20" y="180" as="sourcePoint" />
            <mxPoint x="-47.81199215100537" y="213.35899411325363" as="targetPoint" />
          </mxGeometry>
        </mxCell>
        <mxCell id="knydgiYS4Ji25U2NsumB-40" value="" style="endArrow=classic;html=1;rounded=0;fontFamily=Helvetica;fontSize=12;fontColor=default;exitX=0.5;exitY=1;exitDx=0;exitDy=0;entryX=0.5;entryY=0;entryDx=0;entryDy=0;" parent="1" source="knydgiYS4Ji25U2NsumB-74" target="knydgiYS4Ji25U2NsumB-72" edge="1">
          <mxGeometry width="50" height="50" relative="1" as="geometry">
            <mxPoint x="130" y="350" as="sourcePoint" />
            <mxPoint x="232.49513144620732" y="400.03894843034436" as="targetPoint" />
          </mxGeometry>
        </mxCell>
        <mxCell id="knydgiYS4Ji25U2NsumB-41" value="" style="endArrow=classic;html=1;rounded=0;fontFamily=Helvetica;fontSize=12;fontColor=default;" parent="1" source="knydgiYS4Ji25U2NsumB-35" target="knydgiYS4Ji25U2NsumB-45" edge="1">
          <mxGeometry width="50" height="50" relative="1" as="geometry">
            <mxPoint x="10" y="170" as="sourcePoint" />
            <mxPoint x="84.98602145679001" y="261.4623326150165" as="targetPoint" />
          </mxGeometry>
        </mxCell>
        <mxCell id="knydgiYS4Ji25U2NsumB-42" value="idle" style="ellipse;whiteSpace=wrap;html=1;rounded=0;strokeColor=default;align=center;verticalAlign=middle;fontFamily=Helvetica;fontSize=12;fontColor=default;fillColor=default;" parent="1" vertex="1">
          <mxGeometry x="30" y="60" width="80" height="40" as="geometry" />
        </mxCell>
        <mxCell id="knydgiYS4Ji25U2NsumB-43" value="" style="endArrow=classic;html=1;rounded=0;fontFamily=Helvetica;fontSize=12;fontColor=default;exitX=0.5;exitY=1;exitDx=0;exitDy=0;" parent="1" source="knydgiYS4Ji25U2NsumB-1" target="knydgiYS4Ji25U2NsumB-42" edge="1">
          <mxGeometry width="50" height="50" relative="1" as="geometry">
            <mxPoint x="-190" y="230" as="sourcePoint" />
            <mxPoint x="-140" y="180" as="targetPoint" />
          </mxGeometry>
        </mxCell>
        <mxCell id="knydgiYS4Ji25U2NsumB-44" value="" style="endArrow=classic;html=1;rounded=0;fontFamily=Helvetica;fontSize=12;fontColor=default;entryX=0.5;entryY=0;entryDx=0;entryDy=0;" parent="1" source="knydgiYS4Ji25U2NsumB-1" target="knydgiYS4Ji25U2NsumB-21" edge="1">
          <mxGeometry width="50" height="50" relative="1" as="geometry">
            <mxPoint x="310" y="180" as="sourcePoint" />
            <mxPoint x="360" y="130" as="targetPoint" />
          </mxGeometry>
        </mxCell>
        <mxCell id="knydgiYS4Ji25U2NsumB-45" value="-&amp;gt;" style="rounded=0;whiteSpace=wrap;html=1;strokeColor=default;align=center;verticalAlign=middle;fontFamily=Helvetica;fontSize=12;fontColor=default;fillColor=default;" parent="1" vertex="1">
          <mxGeometry x="410" y="340" width="40" height="20" as="geometry" />
        </mxCell>
        <mxCell id="knydgiYS4Ji25U2NsumB-50" value="R" style="rounded=0;whiteSpace=wrap;html=1;strokeColor=default;align=center;verticalAlign=middle;fontFamily=Helvetica;fontSize=12;fontColor=default;fillColor=default;" parent="1" vertex="1">
          <mxGeometry x="370" y="460" width="40" height="20" as="geometry" />
        </mxCell>
        <mxCell id="knydgiYS4Ji25U2NsumB-53" value="?" style="rounded=0;whiteSpace=wrap;html=1;strokeColor=default;align=center;verticalAlign=middle;fontFamily=Helvetica;fontSize=12;fontColor=default;fillColor=default;" parent="1" vertex="1">
          <mxGeometry x="-890" y="-415" width="40" height="20" as="geometry" />
        </mxCell>
        <mxCell id="knydgiYS4Ji25U2NsumB-55" value="Selector" style="text;html=1;align=center;verticalAlign=middle;whiteSpace=wrap;rounded=0;fontFamily=Helvetica;fontSize=12;fontColor=default;" parent="1" vertex="1">
          <mxGeometry x="-830" y="-420" width="60" height="30" as="geometry" />
        </mxCell>
        <mxCell id="knydgiYS4Ji25U2NsumB-56" value="-&amp;gt;" style="rounded=0;whiteSpace=wrap;html=1;strokeColor=default;align=center;verticalAlign=middle;fontFamily=Helvetica;fontSize=12;fontColor=default;fillColor=default;" parent="1" vertex="1">
          <mxGeometry x="-890" y="-329.9999999999999" width="40" height="20" as="geometry" />
        </mxCell>
        <mxCell id="knydgiYS4Ji25U2NsumB-57" value="ActiveSelector" style="text;html=1;align=center;verticalAlign=middle;whiteSpace=wrap;rounded=0;fontFamily=Helvetica;fontSize=12;fontColor=default;" parent="1" vertex="1">
          <mxGeometry x="-830" y="-370" width="60" height="30" as="geometry" />
        </mxCell>
        <mxCell id="knydgiYS4Ji25U2NsumB-58" value="Sequence" style="text;html=1;align=center;verticalAlign=middle;whiteSpace=wrap;rounded=0;fontFamily=Helvetica;fontSize=12;fontColor=default;" parent="1" vertex="1">
          <mxGeometry x="-830" y="-335" width="60" height="30" as="geometry" />
        </mxCell>
        <mxCell id="knydgiYS4Ji25U2NsumB-59" value="A?" style="rounded=0;whiteSpace=wrap;html=1;strokeColor=default;align=center;verticalAlign=middle;fontFamily=Helvetica;fontSize=12;fontColor=default;fillColor=default;" parent="1" vertex="1">
          <mxGeometry x="-890" y="-370" width="40" height="20" as="geometry" />
        </mxCell>
        <mxCell id="knydgiYS4Ji25U2NsumB-69" value="i&lt;span style=&quot;background-color: initial;&quot;&gt;fNeedWalkToPlayer&lt;/span&gt;" style="ellipse;whiteSpace=wrap;html=1;rounded=0;strokeColor=default;align=center;verticalAlign=middle;fontFamily=Helvetica;fontSize=12;fontColor=default;fillColor=default;" parent="1" vertex="1">
          <mxGeometry x="-510" y="460" width="80" height="40" as="geometry" />
        </mxCell>
        <mxCell id="knydgiYS4Ji25U2NsumB-70" value="A-&amp;gt;" style="rounded=0;whiteSpace=wrap;html=1;strokeColor=default;align=center;verticalAlign=middle;fontFamily=Helvetica;fontSize=12;fontColor=default;fillColor=default;" parent="1" vertex="1">
          <mxGeometry x="-390" y="355.0000000000001" width="40" height="20" as="geometry" />
        </mxCell>
        <mxCell id="knydgiYS4Ji25U2NsumB-71" value="" style="endArrow=classic;html=1;rounded=0;fontFamily=Helvetica;fontSize=12;fontColor=default;exitX=0.5;exitY=1;exitDx=0;exitDy=0;entryX=0.5;entryY=0;entryDx=0;entryDy=0;" parent="1" source="knydgiYS4Ji25U2NsumB-70" target="knydgiYS4Ji25U2NsumB-69" edge="1">
          <mxGeometry width="50" height="50" relative="1" as="geometry">
            <mxPoint x="-170" y="435" as="sourcePoint" />
            <mxPoint x="-120" y="385" as="targetPoint" />
          </mxGeometry>
        </mxCell>
        <mxCell id="knydgiYS4Ji25U2NsumB-72" value="Attack" style="rounded=0;whiteSpace=wrap;html=1;strokeColor=default;align=center;verticalAlign=middle;fontFamily=Helvetica;fontSize=12;fontColor=default;fillColor=default;" parent="1" vertex="1">
          <mxGeometry x="130" y="450" width="80" height="40" as="geometry" />
        </mxCell>
        <mxCell id="knydgiYS4Ji25U2NsumB-73" value="ifSkillOnCD" style="ellipse;whiteSpace=wrap;html=1;rounded=0;strokeColor=default;align=center;verticalAlign=middle;fontFamily=Helvetica;fontSize=12;fontColor=default;fillColor=default;" parent="1" vertex="1">
          <mxGeometry y="450" width="80" height="40" as="geometry" />
        </mxCell>
        <mxCell id="knydgiYS4Ji25U2NsumB-74" value="-&amp;gt;" style="rounded=0;whiteSpace=wrap;html=1;strokeColor=default;align=center;verticalAlign=middle;fontFamily=Helvetica;fontSize=12;fontColor=default;fillColor=default;" parent="1" vertex="1">
          <mxGeometry x="90" y="350.0000000000001" width="40" height="20" as="geometry" />
        </mxCell>
        <mxCell id="knydgiYS4Ji25U2NsumB-75" value="" style="endArrow=classic;html=1;rounded=0;fontFamily=Helvetica;fontSize=12;fontColor=default;entryX=0.5;entryY=0;entryDx=0;entryDy=0;exitX=0.25;exitY=1;exitDx=0;exitDy=0;" parent="1" source="knydgiYS4Ji25U2NsumB-74" target="knydgiYS4Ji25U2NsumB-73" edge="1">
          <mxGeometry width="50" height="50" relative="1" as="geometry">
            <mxPoint x="50" y="410" as="sourcePoint" />
            <mxPoint x="100" y="360" as="targetPoint" />
          </mxGeometry>
        </mxCell>
        <mxCell id="knydgiYS4Ji25U2NsumB-76" value="skillBeg" style="rounded=0;whiteSpace=wrap;html=1;strokeColor=default;align=center;verticalAlign=middle;fontFamily=Helvetica;fontSize=12;fontColor=default;fillColor=default;" parent="1" vertex="1">
          <mxGeometry x="230" y="450" width="80" height="40" as="geometry" />
        </mxCell>
        <mxCell id="knydgiYS4Ji25U2NsumB-77" value="skillEnd" style="rounded=0;whiteSpace=wrap;html=1;strokeColor=default;align=center;verticalAlign=middle;fontFamily=Helvetica;fontSize=12;fontColor=default;fillColor=default;" parent="1" vertex="1">
          <mxGeometry x="490" y="450" width="80" height="40" as="geometry" />
        </mxCell>
        <mxCell id="knydgiYS4Ji25U2NsumB-78" value="skillOn" style="rounded=0;whiteSpace=wrap;html=1;strokeColor=default;align=center;verticalAlign=middle;fontFamily=Helvetica;fontSize=12;fontColor=default;fillColor=default;" parent="1" vertex="1">
          <mxGeometry x="350" y="550" width="80" height="40" as="geometry" />
        </mxCell>
        <mxCell id="knydgiYS4Ji25U2NsumB-80" value="" style="endArrow=classic;html=1;rounded=0;fontFamily=Helvetica;fontSize=12;fontColor=default;exitX=0.25;exitY=1;exitDx=0;exitDy=0;entryX=0.5;entryY=0;entryDx=0;entryDy=0;" parent="1" source="knydgiYS4Ji25U2NsumB-45" target="knydgiYS4Ji25U2NsumB-76" edge="1">
          <mxGeometry width="50" height="50" relative="1" as="geometry">
            <mxPoint x="280" y="330" as="sourcePoint" />
            <mxPoint x="290" y="380" as="targetPoint" />
          </mxGeometry>
        </mxCell>
        <mxCell id="knydgiYS4Ji25U2NsumB-81" value="" style="endArrow=classic;html=1;rounded=0;fontFamily=Helvetica;fontSize=12;fontColor=default;exitX=0.5;exitY=1;exitDx=0;exitDy=0;" parent="1" source="knydgiYS4Ji25U2NsumB-45" target="knydgiYS4Ji25U2NsumB-50" edge="1">
          <mxGeometry width="50" height="50" relative="1" as="geometry">
            <mxPoint x="430" y="370" as="sourcePoint" />
            <mxPoint x="290" y="460" as="targetPoint" />
          </mxGeometry>
        </mxCell>
        <mxCell id="knydgiYS4Ji25U2NsumB-82" value="" style="endArrow=classic;html=1;rounded=0;fontFamily=Helvetica;fontSize=12;fontColor=default;entryX=0.5;entryY=0;entryDx=0;entryDy=0;" parent="1" source="knydgiYS4Ji25U2NsumB-45" target="knydgiYS4Ji25U2NsumB-77" edge="1">
          <mxGeometry width="50" height="50" relative="1" as="geometry">
            <mxPoint x="440" y="370" as="sourcePoint" />
            <mxPoint x="440" y="440" as="targetPoint" />
          </mxGeometry>
        </mxCell>
        <mxCell id="knydgiYS4Ji25U2NsumB-83" value="" style="endArrow=classic;html=1;rounded=0;fontFamily=Helvetica;fontSize=12;fontColor=default;entryX=0.5;entryY=0;entryDx=0;entryDy=0;exitX=0.5;exitY=1;exitDx=0;exitDy=0;" parent="1" source="knydgiYS4Ji25U2NsumB-50" target="knydgiYS4Ji25U2NsumB-78" edge="1">
          <mxGeometry width="50" height="50" relative="1" as="geometry">
            <mxPoint x="393" y="370" as="sourcePoint" />
            <mxPoint x="510" y="460" as="targetPoint" />
          </mxGeometry>
        </mxCell>
        <mxCell id="knydgiYS4Ji25U2NsumB-84" value="R" style="rounded=0;whiteSpace=wrap;html=1;strokeColor=default;align=center;verticalAlign=middle;fontFamily=Helvetica;fontSize=12;fontColor=default;fillColor=default;" parent="1" vertex="1">
          <mxGeometry x="-890" y="-250" width="40" height="20" as="geometry" />
        </mxCell>
        <mxCell id="knydgiYS4Ji25U2NsumB-85" value="Repeat" style="text;html=1;align=center;verticalAlign=middle;whiteSpace=wrap;rounded=0;fontFamily=Helvetica;fontSize=12;fontColor=default;" parent="1" vertex="1">
          <mxGeometry x="-840" y="-255" width="60" height="30" as="geometry" />
        </mxCell>
        <mxCell id="knydgiYS4Ji25U2NsumB-86" value="A?" style="rounded=0;whiteSpace=wrap;html=1;strokeColor=default;align=center;verticalAlign=middle;fontFamily=Helvetica;fontSize=12;fontColor=default;fillColor=default;" parent="1" vertex="1">
          <mxGeometry x="-360" y="460" width="40" height="20" as="geometry" />
        </mxCell>
        <mxCell id="knydgiYS4Ji25U2NsumB-87" value="walkToPlayer" style="rounded=0;whiteSpace=wrap;html=1;strokeColor=default;align=center;verticalAlign=middle;fontFamily=Helvetica;fontSize=12;fontColor=default;fillColor=default;" parent="1" vertex="1">
          <mxGeometry x="-340" y="530" width="80" height="40" as="geometry" />
        </mxCell>
        <mxCell id="knydgiYS4Ji25U2NsumB-88" value="" style="endArrow=classic;html=1;rounded=0;fontFamily=Helvetica;fontSize=12;fontColor=default;exitX=0.5;exitY=1;exitDx=0;exitDy=0;" parent="1" source="knydgiYS4Ji25U2NsumB-86" target="knydgiYS4Ji25U2NsumB-87" edge="1">
          <mxGeometry width="50" height="50" relative="1" as="geometry">
            <mxPoint x="-70" y="360" as="sourcePoint" />
            <mxPoint x="-20" y="310" as="targetPoint" />
          </mxGeometry>
        </mxCell>
        <mxCell id="knydgiYS4Ji25U2NsumB-90" value="ifNearPlayer" style="ellipse;whiteSpace=wrap;html=1;rounded=0;strokeColor=default;align=center;verticalAlign=middle;fontFamily=Helvetica;fontSize=12;fontColor=default;fillColor=default;" parent="1" vertex="1">
          <mxGeometry x="-450" y="530" width="80" height="40" as="geometry" />
        </mxCell>
        <mxCell id="knydgiYS4Ji25U2NsumB-91" value="" style="endArrow=classic;html=1;rounded=0;fontFamily=Helvetica;fontSize=12;fontColor=default;exitX=0.5;exitY=1;exitDx=0;exitDy=0;entryX=0.5;entryY=0;entryDx=0;entryDy=0;" parent="1" source="knydgiYS4Ji25U2NsumB-86" target="knydgiYS4Ji25U2NsumB-90" edge="1">
          <mxGeometry width="50" height="50" relative="1" as="geometry">
            <mxPoint x="-300" y="510" as="sourcePoint" />
            <mxPoint x="-385.9550623364521" y="541.2734164486028" as="targetPoint" />
          </mxGeometry>
        </mxCell>
        <mxCell id="knydgiYS4Ji25U2NsumB-98" value="A?" style="rounded=0;whiteSpace=wrap;html=1;strokeColor=default;align=center;verticalAlign=middle;fontFamily=Helvetica;fontSize=12;fontColor=default;fillColor=default;" parent="1" vertex="1">
          <mxGeometry x="-90" y="460" width="40" height="20" as="geometry" />
        </mxCell>
        <mxCell id="knydgiYS4Ji25U2NsumB-99" value="runToPlayer" style="rounded=0;whiteSpace=wrap;html=1;strokeColor=default;align=center;verticalAlign=middle;fontFamily=Helvetica;fontSize=12;fontColor=default;fillColor=default;" parent="1" vertex="1">
          <mxGeometry x="-80" y="530" width="80" height="40" as="geometry" />
        </mxCell>
        <mxCell id="knydgiYS4Ji25U2NsumB-100" value="" style="endArrow=classic;html=1;rounded=0;fontFamily=Helvetica;fontSize=12;fontColor=default;exitX=0.5;exitY=1;exitDx=0;exitDy=0;" parent="1" source="knydgiYS4Ji25U2NsumB-98" target="knydgiYS4Ji25U2NsumB-99" edge="1">
          <mxGeometry width="50" height="50" relative="1" as="geometry">
            <mxPoint x="170" y="360" as="sourcePoint" />
            <mxPoint x="220" y="310" as="targetPoint" />
          </mxGeometry>
        </mxCell>
        <mxCell id="knydgiYS4Ji25U2NsumB-101" value="ifNearPlayer" style="ellipse;whiteSpace=wrap;html=1;rounded=0;strokeColor=default;align=center;verticalAlign=middle;fontFamily=Helvetica;fontSize=12;fontColor=default;fillColor=default;" parent="1" vertex="1">
          <mxGeometry x="-190" y="530" width="80" height="40" as="geometry" />
        </mxCell>
        <mxCell id="knydgiYS4Ji25U2NsumB-102" value="" style="endArrow=classic;html=1;rounded=0;fontFamily=Helvetica;fontSize=12;fontColor=default;exitX=0.5;exitY=1;exitDx=0;exitDy=0;" parent="1" source="knydgiYS4Ji25U2NsumB-98" target="knydgiYS4Ji25U2NsumB-101" edge="1">
          <mxGeometry width="50" height="50" relative="1" as="geometry">
            <mxPoint x="-60" y="510" as="sourcePoint" />
            <mxPoint x="-3" y="560" as="targetPoint" />
          </mxGeometry>
        </mxCell>
        <mxCell id="knydgiYS4Ji25U2NsumB-105" value="-&amp;gt;" style="rounded=0;whiteSpace=wrap;html=1;strokeColor=default;align=center;verticalAlign=middle;fontFamily=Helvetica;fontSize=12;fontColor=default;fillColor=default;" parent="1" vertex="1">
          <mxGeometry x="-500" y="80.00000000000011" width="40" height="20" as="geometry" />
        </mxCell>
        <mxCell id="knydgiYS4Ji25U2NsumB-106" value="ifBeAttacked" style="ellipse;whiteSpace=wrap;html=1;rounded=0;strokeColor=default;align=center;verticalAlign=middle;fontFamily=Helvetica;fontSize=12;fontColor=default;fillColor=default;" parent="1" vertex="1">
          <mxGeometry x="-680" y="190" width="80" height="40" as="geometry" />
        </mxCell>
        <mxCell id="knydgiYS4Ji25U2NsumB-107" value="beAttacked" style="rounded=0;whiteSpace=wrap;html=1;strokeColor=default;align=center;verticalAlign=middle;fontFamily=Helvetica;fontSize=12;fontColor=default;fillColor=default;" parent="1" vertex="1">
          <mxGeometry x="-460" y="190" width="80" height="40" as="geometry" />
        </mxCell>
        <mxCell id="knydgiYS4Ji25U2NsumB-108" value="" style="endArrow=classic;html=1;rounded=0;fontFamily=Helvetica;fontSize=12;fontColor=default;entryX=0.5;entryY=0;entryDx=0;entryDy=0;" parent="1" source="knydgiYS4Ji25U2NsumB-1" target="knydgiYS4Ji25U2NsumB-105" edge="1">
          <mxGeometry width="50" height="50" relative="1" as="geometry">
            <mxPoint x="-121" as="sourcePoint" />
            <mxPoint x="-210" y="80" as="targetPoint" />
          </mxGeometry>
        </mxCell>
        <mxCell id="knydgiYS4Ji25U2NsumB-110" value="" style="endArrow=classic;html=1;rounded=0;fontFamily=Helvetica;fontSize=12;fontColor=default;entryX=0.5;entryY=0;entryDx=0;entryDy=0;exitX=0.5;exitY=1;exitDx=0;exitDy=0;" parent="1" source="knydgiYS4Ji25U2NsumB-105" target="knydgiYS4Ji25U2NsumB-107" edge="1">
          <mxGeometry width="50" height="50" relative="1" as="geometry">
            <mxPoint x="-230" y="225" as="sourcePoint" />
            <mxPoint x="-330" y="360" as="targetPoint" />
          </mxGeometry>
        </mxCell>
        <mxCell id="knydgiYS4Ji25U2NsumB-111" value="" style="endArrow=classic;html=1;rounded=0;fontFamily=Helvetica;fontSize=12;fontColor=default;entryX=0.5;entryY=0;entryDx=0;entryDy=0;exitX=0.5;exitY=1;exitDx=0;exitDy=0;" parent="1" source="knydgiYS4Ji25U2NsumB-105" target="knydgiYS4Ji25U2NsumB-106" edge="1">
          <mxGeometry width="50" height="50" relative="1" as="geometry">
            <mxPoint x="-470" y="110" as="sourcePoint" />
            <mxPoint x="-410" y="200" as="targetPoint" />
          </mxGeometry>
        </mxCell>
        <mxCell id="knydgiYS4Ji25U2NsumB-112" value="A-&amp;gt;" style="rounded=0;whiteSpace=wrap;html=1;strokeColor=default;align=center;verticalAlign=middle;fontFamily=Helvetica;fontSize=12;fontColor=default;fillColor=default;" parent="1" vertex="1">
          <mxGeometry x="-890" y="-289.9999999999999" width="40" height="20" as="geometry" />
        </mxCell>
        <mxCell id="knydgiYS4Ji25U2NsumB-113" value="ActiveSequence" style="text;html=1;align=center;verticalAlign=middle;whiteSpace=wrap;rounded=0;fontFamily=Helvetica;fontSize=12;fontColor=default;" parent="1" vertex="1">
          <mxGeometry x="-830" y="-295" width="60" height="30" as="geometry" />
        </mxCell>
        <mxCell id="QgS4EuOUHzCmb0cSX-AT-1" value="findPlayer" style="rounded=0;whiteSpace=wrap;html=1;strokeColor=default;align=center;verticalAlign=middle;fontFamily=Helvetica;fontSize=12;fontColor=default;fillColor=default;" parent="1" vertex="1">
          <mxGeometry x="-630" y="460" width="80" height="40" as="geometry" />
        </mxCell>
        <mxCell id="QgS4EuOUHzCmb0cSX-AT-2" value="" style="endArrow=classic;html=1;rounded=0;fontFamily=Helvetica;fontSize=12;fontColor=default;entryX=0.5;entryY=0;entryDx=0;entryDy=0;exitX=0.5;exitY=1;exitDx=0;exitDy=0;" parent="1" source="knydgiYS4Ji25U2NsumB-70" target="QgS4EuOUHzCmb0cSX-AT-1" edge="1">
          <mxGeometry width="50" height="50" relative="1" as="geometry">
            <mxPoint x="-420" y="300" as="sourcePoint" />
            <mxPoint x="-348" y="365" as="targetPoint" />
          </mxGeometry>
        </mxCell>
        <mxCell id="QgS4EuOUHzCmb0cSX-AT-3" value="findPlayer" style="rounded=0;whiteSpace=wrap;html=1;strokeColor=default;align=center;verticalAlign=middle;fontFamily=Helvetica;fontSize=12;fontColor=default;fillColor=default;" parent="1" vertex="1">
          <mxGeometry x="-240" y="450" width="80" height="40" as="geometry" />
        </mxCell>
        <mxCell id="QgS4EuOUHzCmb0cSX-AT-4" value="" style="endArrow=classic;html=1;rounded=0;fontFamily=Helvetica;fontSize=12;fontColor=default;entryX=0.5;entryY=0;entryDx=0;entryDy=0;exitX=0.5;exitY=1;exitDx=0;exitDy=0;" parent="1" source="QgS4EuOUHzCmb0cSX-AT-5" target="QgS4EuOUHzCmb0cSX-AT-3" edge="1">
          <mxGeometry width="50" height="50" relative="1" as="geometry">
            <mxPoint x="80" y="360" as="sourcePoint" />
            <mxPoint x="152" y="425" as="targetPoint" />
          </mxGeometry>
        </mxCell>
        <mxCell id="QgS4EuOUHzCmb0cSX-AT-5" value="A-&amp;gt;" style="rounded=0;whiteSpace=wrap;html=1;strokeColor=default;align=center;verticalAlign=middle;fontFamily=Helvetica;fontSize=12;fontColor=default;fillColor=default;" parent="1" vertex="1">
          <mxGeometry x="-170" y="355.0000000000001" width="40" height="20" as="geometry" />
        </mxCell>
        <mxCell id="QgS4EuOUHzCmb0cSX-AT-6" value="" style="endArrow=classic;html=1;rounded=0;fontFamily=Helvetica;fontSize=12;fontColor=default;entryX=0.5;entryY=0;entryDx=0;entryDy=0;exitX=0.5;exitY=1;exitDx=0;exitDy=0;" parent="1" source="QgS4EuOUHzCmb0cSX-AT-5" target="knydgiYS4Ji25U2NsumB-98" edge="1">
          <mxGeometry width="50" height="50" relative="1" as="geometry">
            <mxPoint x="-140" y="385" as="sourcePoint" />
            <mxPoint x="-240" y="460" as="targetPoint" />
          </mxGeometry>
        </mxCell>
        <mxCell id="6ZHbFeOYInT8uudLEGYI-1" value="A?" style="rounded=0;whiteSpace=wrap;html=1;" parent="1" vertex="1">
          <mxGeometry x="-180" y="690" width="40" height="20" as="geometry" />
        </mxCell>
        <mxCell id="6ZHbFeOYInT8uudLEGYI-2" value="-&amp;gt;" style="rounded=0;whiteSpace=wrap;html=1;strokeColor=default;align=center;verticalAlign=middle;fontFamily=Helvetica;fontSize=12;fontColor=default;fillColor=default;" parent="1" vertex="1">
          <mxGeometry x="-300" y="780" width="40" height="20" as="geometry" />
        </mxCell>
        <mxCell id="6ZHbFeOYInT8uudLEGYI-3" value="A?" style="rounded=0;whiteSpace=wrap;html=1;strokeColor=default;align=center;verticalAlign=middle;fontFamily=Helvetica;fontSize=12;fontColor=default;fillColor=default;" parent="1" vertex="1">
          <mxGeometry x="-320" y="930" width="40" height="20" as="geometry" />
        </mxCell>
        <mxCell id="6ZHbFeOYInT8uudLEGYI-4" value="" style="endArrow=classic;html=1;rounded=0;fontFamily=Helvetica;fontSize=12;fontColor=default;exitX=0.5;exitY=1;exitDx=0;exitDy=0;entryX=0.5;entryY=0;entryDx=0;entryDy=0;" parent="1" source="6ZHbFeOYInT8uudLEGYI-2" target="6ZHbFeOYInT8uudLEGYI-3" edge="1">
          <mxGeometry width="50" height="50" relative="1" as="geometry">
            <mxPoint x="190" y="800" as="sourcePoint" />
            <mxPoint x="240" y="750" as="targetPoint" />
          </mxGeometry>
        </mxCell>
        <mxCell id="6ZHbFeOYInT8uudLEGYI-5" value="" style="endArrow=classic;html=1;rounded=0;fontFamily=Helvetica;fontSize=12;fontColor=default;exitX=0.5;exitY=1;exitDx=0;exitDy=0;" parent="1" source="6ZHbFeOYInT8uudLEGYI-3" target="6ZHbFeOYInT8uudLEGYI-19" edge="1">
          <mxGeometry width="50" height="50" relative="1" as="geometry">
            <mxPoint x="270" y="945" as="sourcePoint" />
            <mxPoint x="102.18800784900918" y="968.3589941132429" as="targetPoint" />
          </mxGeometry>
        </mxCell>
        <mxCell id="6ZHbFeOYInT8uudLEGYI-6" value="" style="endArrow=classic;html=1;rounded=0;fontFamily=Helvetica;fontSize=12;fontColor=default;exitX=0.5;exitY=1;exitDx=0;exitDy=0;entryX=0.5;entryY=0;entryDx=0;entryDy=0;" parent="1" source="6ZHbFeOYInT8uudLEGYI-19" target="6ZHbFeOYInT8uudLEGYI-32" edge="1">
          <mxGeometry width="50" height="50" relative="1" as="geometry">
            <mxPoint x="-300.79999999999995" y="1083.12" as="sourcePoint" />
            <mxPoint x="-330" y="1175" as="targetPoint" />
          </mxGeometry>
        </mxCell>
        <mxCell id="6ZHbFeOYInT8uudLEGYI-7" value="" style="endArrow=classic;html=1;rounded=0;fontFamily=Helvetica;fontSize=12;fontColor=default;exitX=0.5;exitY=1;exitDx=0;exitDy=0;entryX=0.5;entryY=0;entryDx=0;entryDy=0;" parent="1" source="6ZHbFeOYInT8uudLEGYI-3" target="6ZHbFeOYInT8uudLEGYI-52" edge="1">
          <mxGeometry width="50" height="50" relative="1" as="geometry">
            <mxPoint x="270" y="945" as="sourcePoint" />
            <mxPoint x="-11.428571428571558" y="1055.0000000000002" as="targetPoint" />
          </mxGeometry>
        </mxCell>
        <mxCell id="6ZHbFeOYInT8uudLEGYI-8" value="?" style="rounded=0;whiteSpace=wrap;html=1;strokeColor=default;align=center;verticalAlign=middle;fontFamily=Helvetica;fontSize=12;fontColor=default;fillColor=default;" parent="1" vertex="1">
          <mxGeometry x="-30" y="920" width="40" height="20" as="geometry" />
        </mxCell>
        <mxCell id="6ZHbFeOYInT8uudLEGYI-9" value="" style="endArrow=classic;html=1;rounded=0;fontFamily=Helvetica;fontSize=12;fontColor=default;entryX=0.75;entryY=0;entryDx=0;entryDy=0;exitX=0.25;exitY=1;exitDx=0;exitDy=0;" parent="1" source="6ZHbFeOYInT8uudLEGYI-2" target="6ZHbFeOYInT8uudLEGYI-8" edge="1">
          <mxGeometry width="50" height="50" relative="1" as="geometry">
            <mxPoint x="190" y="750" as="sourcePoint" />
            <mxPoint x="320" y="850" as="targetPoint" />
          </mxGeometry>
        </mxCell>
        <mxCell id="6ZHbFeOYInT8uudLEGYI-10" value="" style="endArrow=classic;html=1;rounded=0;fontFamily=Helvetica;fontSize=12;fontColor=default;exitX=0.5;exitY=1;exitDx=0;exitDy=0;entryX=0.5;entryY=0;entryDx=0;entryDy=0;" parent="1" source="6ZHbFeOYInT8uudLEGYI-8" target="6ZHbFeOYInT8uudLEGYI-23" edge="1">
          <mxGeometry width="50" height="50" relative="1" as="geometry">
            <mxPoint x="-80" y="910" as="sourcePoint" />
            <mxPoint x="-147.81199215100537" y="943.3589941132536" as="targetPoint" />
          </mxGeometry>
        </mxCell>
        <mxCell id="6ZHbFeOYInT8uudLEGYI-11" value="" style="endArrow=classic;html=1;rounded=0;fontFamily=Helvetica;fontSize=12;fontColor=default;exitX=0.5;exitY=1;exitDx=0;exitDy=0;entryX=0.5;entryY=0;entryDx=0;entryDy=0;" parent="1" source="6ZHbFeOYInT8uudLEGYI-23" target="6ZHbFeOYInT8uudLEGYI-21" edge="1">
          <mxGeometry width="50" height="50" relative="1" as="geometry">
            <mxPoint x="30" y="1080" as="sourcePoint" />
            <mxPoint x="132.49513144620732" y="1130.0389484303444" as="targetPoint" />
          </mxGeometry>
        </mxCell>
        <mxCell id="6ZHbFeOYInT8uudLEGYI-12" value="" style="endArrow=classic;html=1;rounded=0;fontFamily=Helvetica;fontSize=12;fontColor=default;entryX=0.5;entryY=0;entryDx=0;entryDy=0;" parent="1" source="6ZHbFeOYInT8uudLEGYI-8" target="6ZHbFeOYInT8uudLEGYI-25" edge="1">
          <mxGeometry width="50" height="50" relative="1" as="geometry">
            <mxPoint x="-260" y="900" as="sourcePoint" />
            <mxPoint x="148.66666666666697" y="1070" as="targetPoint" />
          </mxGeometry>
        </mxCell>
        <mxCell id="6ZHbFeOYInT8uudLEGYI-13" value="idle" style="ellipse;whiteSpace=wrap;html=1;rounded=0;strokeColor=default;align=center;verticalAlign=middle;fontFamily=Helvetica;fontSize=12;fontColor=default;fillColor=default;" parent="1" vertex="1">
          <mxGeometry x="-10" y="780" width="80" height="40" as="geometry" />
        </mxCell>
        <mxCell id="6ZHbFeOYInT8uudLEGYI-14" value="" style="endArrow=classic;html=1;rounded=0;fontFamily=Helvetica;fontSize=12;fontColor=default;exitX=0.5;exitY=1;exitDx=0;exitDy=0;" parent="1" source="6ZHbFeOYInT8uudLEGYI-1" target="6ZHbFeOYInT8uudLEGYI-13" edge="1">
          <mxGeometry width="50" height="50" relative="1" as="geometry">
            <mxPoint x="-230" y="950" as="sourcePoint" />
            <mxPoint x="-180" y="900" as="targetPoint" />
          </mxGeometry>
        </mxCell>
        <mxCell id="6ZHbFeOYInT8uudLEGYI-15" value="" style="endArrow=classic;html=1;rounded=0;fontFamily=Helvetica;fontSize=12;fontColor=default;entryX=0.5;entryY=0;entryDx=0;entryDy=0;" parent="1" source="6ZHbFeOYInT8uudLEGYI-1" target="6ZHbFeOYInT8uudLEGYI-2" edge="1">
          <mxGeometry width="50" height="50" relative="1" as="geometry">
            <mxPoint x="270" y="900" as="sourcePoint" />
            <mxPoint x="320" y="850" as="targetPoint" />
          </mxGeometry>
        </mxCell>
        <mxCell id="6ZHbFeOYInT8uudLEGYI-18" value="i&lt;span style=&quot;background-color: initial;&quot;&gt;fNeedWalkToPlayer&lt;/span&gt;" style="ellipse;whiteSpace=wrap;html=1;rounded=0;strokeColor=default;align=center;verticalAlign=middle;fontFamily=Helvetica;fontSize=12;fontColor=default;fillColor=default;" parent="1" vertex="1">
          <mxGeometry x="-570" y="1180" width="80" height="40" as="geometry" />
        </mxCell>
        <mxCell id="6ZHbFeOYInT8uudLEGYI-19" value="A-&amp;gt;" style="rounded=0;whiteSpace=wrap;html=1;strokeColor=default;align=center;verticalAlign=middle;fontFamily=Helvetica;fontSize=12;fontColor=default;fillColor=default;" parent="1" vertex="1">
          <mxGeometry x="-490" y="1075" width="40" height="20" as="geometry" />
        </mxCell>
        <mxCell id="6ZHbFeOYInT8uudLEGYI-20" value="" style="endArrow=classic;html=1;rounded=0;fontFamily=Helvetica;fontSize=12;fontColor=default;exitX=0.5;exitY=1;exitDx=0;exitDy=0;entryX=0.5;entryY=0;entryDx=0;entryDy=0;" parent="1" source="6ZHbFeOYInT8uudLEGYI-19" target="6ZHbFeOYInT8uudLEGYI-18" edge="1">
          <mxGeometry width="50" height="50" relative="1" as="geometry">
            <mxPoint x="-270" y="1155" as="sourcePoint" />
            <mxPoint x="-220" y="1105" as="targetPoint" />
          </mxGeometry>
        </mxCell>
        <mxCell id="6ZHbFeOYInT8uudLEGYI-21" value="keep away" style="rounded=0;whiteSpace=wrap;html=1;strokeColor=default;align=center;verticalAlign=middle;fontFamily=Helvetica;fontSize=12;fontColor=default;fillColor=default;" parent="1" vertex="1">
          <mxGeometry x="30" y="1180" width="80" height="40" as="geometry" />
        </mxCell>
        <mxCell id="6ZHbFeOYInT8uudLEGYI-22" value="ifSkillOnCD" style="ellipse;whiteSpace=wrap;html=1;rounded=0;strokeColor=default;align=center;verticalAlign=middle;fontFamily=Helvetica;fontSize=12;fontColor=default;fillColor=default;" parent="1" vertex="1">
          <mxGeometry x="-100" y="1180" width="80" height="40" as="geometry" />
        </mxCell>
        <mxCell id="6ZHbFeOYInT8uudLEGYI-23" value="-&amp;gt;" style="rounded=0;whiteSpace=wrap;html=1;strokeColor=default;align=center;verticalAlign=middle;fontFamily=Helvetica;fontSize=12;fontColor=default;fillColor=default;" parent="1" vertex="1">
          <mxGeometry x="-10" y="1080" width="40" height="20" as="geometry" />
        </mxCell>
        <mxCell id="6ZHbFeOYInT8uudLEGYI-24" value="" style="endArrow=classic;html=1;rounded=0;fontFamily=Helvetica;fontSize=12;fontColor=default;entryX=0.5;entryY=0;entryDx=0;entryDy=0;exitX=0.25;exitY=1;exitDx=0;exitDy=0;" parent="1" source="6ZHbFeOYInT8uudLEGYI-23" target="6ZHbFeOYInT8uudLEGYI-22" edge="1">
          <mxGeometry width="50" height="50" relative="1" as="geometry">
            <mxPoint x="-50" y="1140" as="sourcePoint" />
            <mxPoint y="1090" as="targetPoint" />
          </mxGeometry>
        </mxCell>
        <mxCell id="6ZHbFeOYInT8uudLEGYI-25" value="attack" style="rounded=0;whiteSpace=wrap;html=1;strokeColor=default;align=center;verticalAlign=middle;fontFamily=Helvetica;fontSize=12;fontColor=default;fillColor=default;" parent="1" vertex="1">
          <mxGeometry x="100" y="1070" width="80" height="40" as="geometry" />
        </mxCell>
        <mxCell id="6ZHbFeOYInT8uudLEGYI-32" value="A?" style="rounded=0;whiteSpace=wrap;html=1;strokeColor=default;align=center;verticalAlign=middle;fontFamily=Helvetica;fontSize=12;fontColor=default;fillColor=default;" parent="1" vertex="1">
          <mxGeometry x="-420" y="1180" width="40" height="20" as="geometry" />
        </mxCell>
        <mxCell id="6ZHbFeOYInT8uudLEGYI-33" value="walkToPlayer" style="rounded=0;whiteSpace=wrap;html=1;strokeColor=default;align=center;verticalAlign=middle;fontFamily=Helvetica;fontSize=12;fontColor=default;fillColor=default;" parent="1" vertex="1">
          <mxGeometry x="-400" y="1250" width="80" height="40" as="geometry" />
        </mxCell>
        <mxCell id="6ZHbFeOYInT8uudLEGYI-34" value="" style="endArrow=classic;html=1;rounded=0;fontFamily=Helvetica;fontSize=12;fontColor=default;exitX=0.5;exitY=1;exitDx=0;exitDy=0;" parent="1" source="6ZHbFeOYInT8uudLEGYI-32" target="6ZHbFeOYInT8uudLEGYI-33" edge="1">
          <mxGeometry width="50" height="50" relative="1" as="geometry">
            <mxPoint x="-130" y="1080" as="sourcePoint" />
            <mxPoint x="-80" y="1030" as="targetPoint" />
          </mxGeometry>
        </mxCell>
        <mxCell id="6ZHbFeOYInT8uudLEGYI-35" value="ifNearPlayer" style="ellipse;whiteSpace=wrap;html=1;rounded=0;strokeColor=default;align=center;verticalAlign=middle;fontFamily=Helvetica;fontSize=12;fontColor=default;fillColor=default;" parent="1" vertex="1">
          <mxGeometry x="-510" y="1250" width="80" height="40" as="geometry" />
        </mxCell>
        <mxCell id="6ZHbFeOYInT8uudLEGYI-36" value="" style="endArrow=classic;html=1;rounded=0;fontFamily=Helvetica;fontSize=12;fontColor=default;exitX=0.5;exitY=1;exitDx=0;exitDy=0;entryX=0.5;entryY=0;entryDx=0;entryDy=0;" parent="1" source="6ZHbFeOYInT8uudLEGYI-32" target="6ZHbFeOYInT8uudLEGYI-35" edge="1">
          <mxGeometry width="50" height="50" relative="1" as="geometry">
            <mxPoint x="-360" y="1230" as="sourcePoint" />
            <mxPoint x="-445.9550623364521" y="1261.2734164486028" as="targetPoint" />
          </mxGeometry>
        </mxCell>
        <mxCell id="6ZHbFeOYInT8uudLEGYI-37" value="A?" style="rounded=0;whiteSpace=wrap;html=1;strokeColor=default;align=center;verticalAlign=middle;fontFamily=Helvetica;fontSize=12;fontColor=default;fillColor=default;" parent="1" vertex="1">
          <mxGeometry x="-180" y="1180" width="40" height="20" as="geometry" />
        </mxCell>
        <mxCell id="6ZHbFeOYInT8uudLEGYI-38" value="runToPlayer" style="rounded=0;whiteSpace=wrap;html=1;strokeColor=default;align=center;verticalAlign=middle;fontFamily=Helvetica;fontSize=12;fontColor=default;fillColor=default;" parent="1" vertex="1">
          <mxGeometry x="-150" y="1260" width="80" height="40" as="geometry" />
        </mxCell>
        <mxCell id="6ZHbFeOYInT8uudLEGYI-39" value="" style="endArrow=classic;html=1;rounded=0;fontFamily=Helvetica;fontSize=12;fontColor=default;exitX=0.5;exitY=1;exitDx=0;exitDy=0;" parent="1" source="6ZHbFeOYInT8uudLEGYI-37" target="6ZHbFeOYInT8uudLEGYI-38" edge="1">
          <mxGeometry width="50" height="50" relative="1" as="geometry">
            <mxPoint x="80" y="1080" as="sourcePoint" />
            <mxPoint x="130" y="1030" as="targetPoint" />
          </mxGeometry>
        </mxCell>
        <mxCell id="6ZHbFeOYInT8uudLEGYI-40" value="ifNearPlayer" style="ellipse;whiteSpace=wrap;html=1;rounded=0;strokeColor=default;align=center;verticalAlign=middle;fontFamily=Helvetica;fontSize=12;fontColor=default;fillColor=default;" parent="1" vertex="1">
          <mxGeometry x="-260" y="1260" width="80" height="40" as="geometry" />
        </mxCell>
        <mxCell id="6ZHbFeOYInT8uudLEGYI-41" value="" style="endArrow=classic;html=1;rounded=0;fontFamily=Helvetica;fontSize=12;fontColor=default;exitX=0.5;exitY=1;exitDx=0;exitDy=0;" parent="1" source="6ZHbFeOYInT8uudLEGYI-37" target="6ZHbFeOYInT8uudLEGYI-40" edge="1">
          <mxGeometry width="50" height="50" relative="1" as="geometry">
            <mxPoint x="-150" y="1230" as="sourcePoint" />
            <mxPoint x="-93" y="1280" as="targetPoint" />
          </mxGeometry>
        </mxCell>
        <mxCell id="6ZHbFeOYInT8uudLEGYI-42" value="-&amp;gt;" style="rounded=0;whiteSpace=wrap;html=1;strokeColor=default;align=center;verticalAlign=middle;fontFamily=Helvetica;fontSize=12;fontColor=default;fillColor=default;" parent="1" vertex="1">
          <mxGeometry x="-560" y="790.0000000000001" width="40" height="20" as="geometry" />
        </mxCell>
        <mxCell id="6ZHbFeOYInT8uudLEGYI-43" value="ifBeAttacked" style="ellipse;whiteSpace=wrap;html=1;rounded=0;strokeColor=default;align=center;verticalAlign=middle;fontFamily=Helvetica;fontSize=12;fontColor=default;fillColor=default;" parent="1" vertex="1">
          <mxGeometry x="-630" y="900" width="80" height="40" as="geometry" />
        </mxCell>
        <mxCell id="6ZHbFeOYInT8uudLEGYI-44" value="beAttacked" style="rounded=0;whiteSpace=wrap;html=1;strokeColor=default;align=center;verticalAlign=middle;fontFamily=Helvetica;fontSize=12;fontColor=default;fillColor=default;" parent="1" vertex="1">
          <mxGeometry x="-520" y="900" width="80" height="40" as="geometry" />
        </mxCell>
        <mxCell id="6ZHbFeOYInT8uudLEGYI-45" value="" style="endArrow=classic;html=1;rounded=0;fontFamily=Helvetica;fontSize=12;fontColor=default;entryX=0.5;entryY=0;entryDx=0;entryDy=0;" parent="1" source="6ZHbFeOYInT8uudLEGYI-1" target="6ZHbFeOYInT8uudLEGYI-42" edge="1">
          <mxGeometry width="50" height="50" relative="1" as="geometry">
            <mxPoint x="-161" y="720" as="sourcePoint" />
            <mxPoint x="-250" y="800" as="targetPoint" />
          </mxGeometry>
        </mxCell>
        <mxCell id="6ZHbFeOYInT8uudLEGYI-46" value="" style="endArrow=classic;html=1;rounded=0;fontFamily=Helvetica;fontSize=12;fontColor=default;entryX=0.5;entryY=0;entryDx=0;entryDy=0;exitX=0.5;exitY=1;exitDx=0;exitDy=0;" parent="1" source="6ZHbFeOYInT8uudLEGYI-42" target="6ZHbFeOYInT8uudLEGYI-44" edge="1">
          <mxGeometry width="50" height="50" relative="1" as="geometry">
            <mxPoint x="-290" y="935" as="sourcePoint" />
            <mxPoint x="-390" y="1070" as="targetPoint" />
          </mxGeometry>
        </mxCell>
        <mxCell id="6ZHbFeOYInT8uudLEGYI-47" value="" style="endArrow=classic;html=1;rounded=0;fontFamily=Helvetica;fontSize=12;fontColor=default;entryX=0.5;entryY=0;entryDx=0;entryDy=0;exitX=0.5;exitY=1;exitDx=0;exitDy=0;" parent="1" source="6ZHbFeOYInT8uudLEGYI-42" target="6ZHbFeOYInT8uudLEGYI-43" edge="1">
          <mxGeometry width="50" height="50" relative="1" as="geometry">
            <mxPoint x="-530" y="820" as="sourcePoint" />
            <mxPoint x="-470" y="910" as="targetPoint" />
          </mxGeometry>
        </mxCell>
        <mxCell id="6ZHbFeOYInT8uudLEGYI-48" value="findPlayer" style="rounded=0;whiteSpace=wrap;html=1;strokeColor=default;align=center;verticalAlign=middle;fontFamily=Helvetica;fontSize=12;fontColor=default;fillColor=default;" parent="1" vertex="1">
          <mxGeometry x="-680" y="1180" width="80" height="40" as="geometry" />
        </mxCell>
        <mxCell id="6ZHbFeOYInT8uudLEGYI-49" value="" style="endArrow=classic;html=1;rounded=0;fontFamily=Helvetica;fontSize=12;fontColor=default;entryX=0.5;entryY=0;entryDx=0;entryDy=0;exitX=0.5;exitY=1;exitDx=0;exitDy=0;" parent="1" source="6ZHbFeOYInT8uudLEGYI-19" target="6ZHbFeOYInT8uudLEGYI-48" edge="1">
          <mxGeometry width="50" height="50" relative="1" as="geometry">
            <mxPoint x="-520" y="1020" as="sourcePoint" />
            <mxPoint x="-448" y="1085" as="targetPoint" />
          </mxGeometry>
        </mxCell>
        <mxCell id="6ZHbFeOYInT8uudLEGYI-50" value="findPlayer" style="rounded=0;whiteSpace=wrap;html=1;strokeColor=default;align=center;verticalAlign=middle;fontFamily=Helvetica;fontSize=12;fontColor=default;fillColor=default;" parent="1" vertex="1">
          <mxGeometry x="-330" y="1170" width="80" height="40" as="geometry" />
        </mxCell>
        <mxCell id="6ZHbFeOYInT8uudLEGYI-51" value="" style="endArrow=classic;html=1;rounded=0;fontFamily=Helvetica;fontSize=12;fontColor=default;entryX=0.5;entryY=0;entryDx=0;entryDy=0;exitX=0.5;exitY=1;exitDx=0;exitDy=0;" parent="1" source="6ZHbFeOYInT8uudLEGYI-52" target="6ZHbFeOYInT8uudLEGYI-50" edge="1">
          <mxGeometry width="50" height="50" relative="1" as="geometry">
            <mxPoint x="40" y="1080" as="sourcePoint" />
            <mxPoint x="112" y="1145" as="targetPoint" />
          </mxGeometry>
        </mxCell>
        <mxCell id="6ZHbFeOYInT8uudLEGYI-52" value="A-&amp;gt;" style="rounded=0;whiteSpace=wrap;html=1;strokeColor=default;align=center;verticalAlign=middle;fontFamily=Helvetica;fontSize=12;fontColor=default;fillColor=default;" parent="1" vertex="1">
          <mxGeometry x="-210" y="1075" width="40" height="20" as="geometry" />
        </mxCell>
        <mxCell id="6ZHbFeOYInT8uudLEGYI-53" value="" style="endArrow=classic;html=1;rounded=0;fontFamily=Helvetica;fontSize=12;fontColor=default;entryX=0.5;entryY=0;entryDx=0;entryDy=0;exitX=0.5;exitY=1;exitDx=0;exitDy=0;" parent="1" source="6ZHbFeOYInT8uudLEGYI-52" target="6ZHbFeOYInT8uudLEGYI-37" edge="1">
          <mxGeometry width="50" height="50" relative="1" as="geometry">
            <mxPoint x="-180" y="1105" as="sourcePoint" />
            <mxPoint x="-280" y="1180" as="targetPoint" />
          </mxGeometry>
        </mxCell>
        <mxCell id="6ZHbFeOYInT8uudLEGYI-54" value="猪头人_刀" style="text;html=1;align=center;verticalAlign=middle;whiteSpace=wrap;rounded=0;" parent="1" vertex="1">
          <mxGeometry x="280" y="-40" width="60" height="30" as="geometry" />
        </mxCell>
        <mxCell id="6ZHbFeOYInT8uudLEGYI-108" value="猪头人_弓" style="text;html=1;align=center;verticalAlign=middle;whiteSpace=wrap;rounded=0;" parent="1" vertex="1">
          <mxGeometry x="90" y="920" width="60" height="30" as="geometry" />
        </mxCell>
        <mxCell id="6ZHbFeOYInT8uudLEGYI-109" value="A?" style="rounded=0;whiteSpace=wrap;html=1;" parent="1" vertex="1">
          <mxGeometry x="-160" y="1520" width="40" height="20" as="geometry" />
        </mxCell>
        <mxCell id="6ZHbFeOYInT8uudLEGYI-110" value="A？" style="rounded=0;whiteSpace=wrap;html=1;strokeColor=default;align=center;verticalAlign=middle;fontFamily=Helvetica;fontSize=12;fontColor=default;fillColor=default;" parent="1" vertex="1">
          <mxGeometry x="-280" y="1610" width="40" height="20" as="geometry" />
        </mxCell>
        <mxCell id="6ZHbFeOYInT8uudLEGYI-112" value="" style="endArrow=classic;html=1;rounded=0;fontFamily=Helvetica;fontSize=12;fontColor=default;exitX=0.5;exitY=1;exitDx=0;exitDy=0;entryX=0.5;entryY=0;entryDx=0;entryDy=0;" parent="1" source="6ZHbFeOYInT8uudLEGYI-110" target="6ZHbFeOYInT8uudLEGYI-168" edge="1">
          <mxGeometry width="50" height="50" relative="1" as="geometry">
            <mxPoint x="210" y="1630" as="sourcePoint" />
            <mxPoint x="-280" y="1760" as="targetPoint" />
          </mxGeometry>
        </mxCell>
        <mxCell id="6ZHbFeOYInT8uudLEGYI-117" value="" style="endArrow=classic;html=1;rounded=0;fontFamily=Helvetica;fontSize=12;fontColor=default;entryX=0.5;entryY=0;entryDx=0;entryDy=0;exitX=0.25;exitY=1;exitDx=0;exitDy=0;" parent="1" source="6ZHbFeOYInT8uudLEGYI-110" target="6ZHbFeOYInT8uudLEGYI-238" edge="1">
          <mxGeometry width="50" height="50" relative="1" as="geometry">
            <mxPoint x="210" y="1580" as="sourcePoint" />
            <mxPoint x="540" y="1740" as="targetPoint" />
          </mxGeometry>
        </mxCell>
        <mxCell id="6ZHbFeOYInT8uudLEGYI-121" value="idle" style="ellipse;whiteSpace=wrap;html=1;rounded=0;strokeColor=default;align=center;verticalAlign=middle;fontFamily=Helvetica;fontSize=12;fontColor=default;fillColor=default;" parent="1" vertex="1">
          <mxGeometry x="10" y="1610" width="80" height="40" as="geometry" />
        </mxCell>
        <mxCell id="6ZHbFeOYInT8uudLEGYI-122" value="" style="endArrow=classic;html=1;rounded=0;fontFamily=Helvetica;fontSize=12;fontColor=default;exitX=0.5;exitY=1;exitDx=0;exitDy=0;" parent="1" source="6ZHbFeOYInT8uudLEGYI-109" target="6ZHbFeOYInT8uudLEGYI-121" edge="1">
          <mxGeometry width="50" height="50" relative="1" as="geometry">
            <mxPoint x="-210" y="1780" as="sourcePoint" />
            <mxPoint x="-160" y="1730" as="targetPoint" />
          </mxGeometry>
        </mxCell>
        <mxCell id="6ZHbFeOYInT8uudLEGYI-123" value="" style="endArrow=classic;html=1;rounded=0;fontFamily=Helvetica;fontSize=12;fontColor=default;entryX=0.5;entryY=0;entryDx=0;entryDy=0;" parent="1" source="6ZHbFeOYInT8uudLEGYI-109" target="6ZHbFeOYInT8uudLEGYI-110" edge="1">
          <mxGeometry width="50" height="50" relative="1" as="geometry">
            <mxPoint x="290" y="1730" as="sourcePoint" />
            <mxPoint x="340" y="1680" as="targetPoint" />
          </mxGeometry>
        </mxCell>
        <mxCell id="6ZHbFeOYInT8uudLEGYI-150" value="-&amp;gt;" style="rounded=0;whiteSpace=wrap;html=1;strokeColor=default;align=center;verticalAlign=middle;fontFamily=Helvetica;fontSize=12;fontColor=default;fillColor=default;" parent="1" vertex="1">
          <mxGeometry x="-1620" y="1720" width="40" height="20" as="geometry" />
        </mxCell>
        <mxCell id="6ZHbFeOYInT8uudLEGYI-151" value="ifBeAttacked" style="ellipse;whiteSpace=wrap;html=1;rounded=0;strokeColor=default;align=center;verticalAlign=middle;fontFamily=Helvetica;fontSize=12;fontColor=default;fillColor=default;" parent="1" vertex="1">
          <mxGeometry x="-1800" y="1830" width="80" height="40" as="geometry" />
        </mxCell>
        <mxCell id="6ZHbFeOYInT8uudLEGYI-152" value="beAttacked" style="rounded=0;whiteSpace=wrap;html=1;strokeColor=default;align=center;verticalAlign=middle;fontFamily=Helvetica;fontSize=12;fontColor=default;fillColor=default;" parent="1" vertex="1">
          <mxGeometry x="-1580" y="1830" width="80" height="40" as="geometry" />
        </mxCell>
        <mxCell id="6ZHbFeOYInT8uudLEGYI-153" value="" style="endArrow=classic;html=1;rounded=0;fontFamily=Helvetica;fontSize=12;fontColor=default;entryX=0.5;entryY=0;entryDx=0;entryDy=0;" parent="1" source="6ZHbFeOYInT8uudLEGYI-109" target="6ZHbFeOYInT8uudLEGYI-150" edge="1">
          <mxGeometry width="50" height="50" relative="1" as="geometry">
            <mxPoint x="-141" y="1550" as="sourcePoint" />
            <mxPoint x="-230" y="1630" as="targetPoint" />
          </mxGeometry>
        </mxCell>
        <mxCell id="6ZHbFeOYInT8uudLEGYI-154" value="" style="endArrow=classic;html=1;rounded=0;fontFamily=Helvetica;fontSize=12;fontColor=default;entryX=0.5;entryY=0;entryDx=0;entryDy=0;exitX=0.5;exitY=1;exitDx=0;exitDy=0;" parent="1" source="6ZHbFeOYInT8uudLEGYI-150" target="6ZHbFeOYInT8uudLEGYI-152" edge="1">
          <mxGeometry width="50" height="50" relative="1" as="geometry">
            <mxPoint x="-1350" y="1865" as="sourcePoint" />
            <mxPoint x="-1450" y="2000" as="targetPoint" />
          </mxGeometry>
        </mxCell>
        <mxCell id="6ZHbFeOYInT8uudLEGYI-155" value="" style="endArrow=classic;html=1;rounded=0;fontFamily=Helvetica;fontSize=12;fontColor=default;entryX=0.5;entryY=0;entryDx=0;entryDy=0;exitX=0.5;exitY=1;exitDx=0;exitDy=0;" parent="1" source="6ZHbFeOYInT8uudLEGYI-150" target="6ZHbFeOYInT8uudLEGYI-151" edge="1">
          <mxGeometry width="50" height="50" relative="1" as="geometry">
            <mxPoint x="-1590" y="1750" as="sourcePoint" />
            <mxPoint x="-1530" y="1840" as="targetPoint" />
          </mxGeometry>
        </mxCell>
        <mxCell id="6ZHbFeOYInT8uudLEGYI-162" value="蜥蜴人" style="text;html=1;align=center;verticalAlign=middle;whiteSpace=wrap;rounded=0;" parent="1" vertex="1">
          <mxGeometry x="300" y="1560" width="60" height="30" as="geometry" />
        </mxCell>
        <mxCell id="6ZHbFeOYInT8uudLEGYI-165" value="" style="endArrow=classic;html=1;rounded=0;fontFamily=Helvetica;fontSize=12;fontColor=default;exitX=0.5;exitY=1;exitDx=0;exitDy=0;entryX=0.5;entryY=0;entryDx=0;entryDy=0;" parent="1" source="6ZHbFeOYInT8uudLEGYI-168" target="6ZHbFeOYInT8uudLEGYI-198" edge="1">
          <mxGeometry width="50" height="50" relative="1" as="geometry">
            <mxPoint x="-920" y="1810" as="sourcePoint" />
            <mxPoint x="-880" y="1910.0000000000005" as="targetPoint" />
          </mxGeometry>
        </mxCell>
        <mxCell id="6ZHbFeOYInT8uudLEGYI-167" value="ifSkillFarOnCD" style="ellipse;whiteSpace=wrap;html=1;rounded=0;strokeColor=default;align=center;verticalAlign=middle;fontFamily=Helvetica;fontSize=12;fontColor=default;fillColor=default;" parent="1" vertex="1">
          <mxGeometry x="-790" y="1820" width="80" height="40" as="geometry" />
        </mxCell>
        <mxCell id="6ZHbFeOYInT8uudLEGYI-168" value="-&amp;gt;" style="rounded=0;whiteSpace=wrap;html=1;strokeColor=default;align=center;verticalAlign=middle;fontFamily=Helvetica;fontSize=12;fontColor=default;fillColor=default;" parent="1" vertex="1">
          <mxGeometry x="-700" y="1720" width="40" height="20" as="geometry" />
        </mxCell>
        <mxCell id="6ZHbFeOYInT8uudLEGYI-169" value="" style="endArrow=classic;html=1;rounded=0;fontFamily=Helvetica;fontSize=12;fontColor=default;entryX=0.5;entryY=0;entryDx=0;entryDy=0;exitX=0.25;exitY=1;exitDx=0;exitDy=0;" parent="1" source="6ZHbFeOYInT8uudLEGYI-168" target="6ZHbFeOYInT8uudLEGYI-167" edge="1">
          <mxGeometry width="50" height="50" relative="1" as="geometry">
            <mxPoint x="-740" y="1780" as="sourcePoint" />
            <mxPoint x="-690" y="1730" as="targetPoint" />
          </mxGeometry>
        </mxCell>
        <mxCell id="6ZHbFeOYInT8uudLEGYI-170" value="A?" style="rounded=0;whiteSpace=wrap;html=1;strokeColor=default;align=center;verticalAlign=middle;fontFamily=Helvetica;fontSize=12;fontColor=default;fillColor=default;" parent="1" vertex="1">
          <mxGeometry x="-960" y="2040" width="40" height="20" as="geometry" />
        </mxCell>
        <mxCell id="6ZHbFeOYInT8uudLEGYI-171" value="" style="endArrow=classic;html=1;rounded=0;fontFamily=Helvetica;fontSize=12;fontColor=default;exitX=0.5;exitY=1;exitDx=0;exitDy=0;" parent="1" source="6ZHbFeOYInT8uudLEGYI-170" target="6ZHbFeOYInT8uudLEGYI-175" edge="1">
          <mxGeometry width="50" height="50" relative="1" as="geometry">
            <mxPoint x="-350" y="1855" as="sourcePoint" />
            <mxPoint x="-517.8119921509908" y="1878.3589941132432" as="targetPoint" />
          </mxGeometry>
        </mxCell>
        <mxCell id="6ZHbFeOYInT8uudLEGYI-172" value="" style="endArrow=classic;html=1;rounded=0;fontFamily=Helvetica;fontSize=12;fontColor=default;exitX=0.5;exitY=1;exitDx=0;exitDy=0;entryX=0.5;entryY=0;entryDx=0;entryDy=0;" parent="1" source="6ZHbFeOYInT8uudLEGYI-175" target="6ZHbFeOYInT8uudLEGYI-177" edge="1">
          <mxGeometry width="50" height="50" relative="1" as="geometry">
            <mxPoint x="-920.8" y="2148.12" as="sourcePoint" />
            <mxPoint x="-950" y="2240" as="targetPoint" />
          </mxGeometry>
        </mxCell>
        <mxCell id="6ZHbFeOYInT8uudLEGYI-173" value="" style="endArrow=classic;html=1;rounded=0;fontFamily=Helvetica;fontSize=12;fontColor=default;exitX=0.5;exitY=1;exitDx=0;exitDy=0;entryX=0.5;entryY=0;entryDx=0;entryDy=0;" parent="1" source="6ZHbFeOYInT8uudLEGYI-170" target="6ZHbFeOYInT8uudLEGYI-191" edge="1">
          <mxGeometry width="50" height="50" relative="1" as="geometry">
            <mxPoint x="-350" y="1855" as="sourcePoint" />
            <mxPoint x="-631.4285714285716" y="1965" as="targetPoint" />
          </mxGeometry>
        </mxCell>
        <mxCell id="6ZHbFeOYInT8uudLEGYI-174" value="i&lt;span style=&quot;background-color: initial;&quot;&gt;fNeedWalkToPlayer&lt;/span&gt;" style="ellipse;whiteSpace=wrap;html=1;rounded=0;strokeColor=default;align=center;verticalAlign=middle;fontFamily=Helvetica;fontSize=12;fontColor=default;fillColor=default;" parent="1" vertex="1">
          <mxGeometry x="-1230" y="2245" width="80" height="40" as="geometry" />
        </mxCell>
        <mxCell id="6ZHbFeOYInT8uudLEGYI-175" value="A-&amp;gt;" style="rounded=0;whiteSpace=wrap;html=1;strokeColor=default;align=center;verticalAlign=middle;fontFamily=Helvetica;fontSize=12;fontColor=default;fillColor=default;" parent="1" vertex="1">
          <mxGeometry x="-1110" y="2140" width="40" height="20" as="geometry" />
        </mxCell>
        <mxCell id="6ZHbFeOYInT8uudLEGYI-176" value="" style="endArrow=classic;html=1;rounded=0;fontFamily=Helvetica;fontSize=12;fontColor=default;exitX=0.5;exitY=1;exitDx=0;exitDy=0;entryX=0.5;entryY=0;entryDx=0;entryDy=0;" parent="1" source="6ZHbFeOYInT8uudLEGYI-175" target="6ZHbFeOYInT8uudLEGYI-174" edge="1">
          <mxGeometry width="50" height="50" relative="1" as="geometry">
            <mxPoint x="-890" y="2220" as="sourcePoint" />
            <mxPoint x="-840" y="2170" as="targetPoint" />
          </mxGeometry>
        </mxCell>
        <mxCell id="6ZHbFeOYInT8uudLEGYI-177" value="A?" style="rounded=0;whiteSpace=wrap;html=1;strokeColor=default;align=center;verticalAlign=middle;fontFamily=Helvetica;fontSize=12;fontColor=default;fillColor=default;" parent="1" vertex="1">
          <mxGeometry x="-1080" y="2245" width="40" height="20" as="geometry" />
        </mxCell>
        <mxCell id="6ZHbFeOYInT8uudLEGYI-178" value="walkToPlayer" style="rounded=0;whiteSpace=wrap;html=1;strokeColor=default;align=center;verticalAlign=middle;fontFamily=Helvetica;fontSize=12;fontColor=default;fillColor=default;" parent="1" vertex="1">
          <mxGeometry x="-1060" y="2315" width="80" height="40" as="geometry" />
        </mxCell>
        <mxCell id="6ZHbFeOYInT8uudLEGYI-179" value="" style="endArrow=classic;html=1;rounded=0;fontFamily=Helvetica;fontSize=12;fontColor=default;exitX=0.5;exitY=1;exitDx=0;exitDy=0;" parent="1" source="6ZHbFeOYInT8uudLEGYI-177" target="6ZHbFeOYInT8uudLEGYI-178" edge="1">
          <mxGeometry width="50" height="50" relative="1" as="geometry">
            <mxPoint x="-790" y="2145" as="sourcePoint" />
            <mxPoint x="-740" y="2095" as="targetPoint" />
          </mxGeometry>
        </mxCell>
        <mxCell id="6ZHbFeOYInT8uudLEGYI-180" value="ifNearPlayer" style="ellipse;whiteSpace=wrap;html=1;rounded=0;strokeColor=default;align=center;verticalAlign=middle;fontFamily=Helvetica;fontSize=12;fontColor=default;fillColor=default;" parent="1" vertex="1">
          <mxGeometry x="-1170" y="2315" width="80" height="40" as="geometry" />
        </mxCell>
        <mxCell id="6ZHbFeOYInT8uudLEGYI-181" value="" style="endArrow=classic;html=1;rounded=0;fontFamily=Helvetica;fontSize=12;fontColor=default;exitX=0.5;exitY=1;exitDx=0;exitDy=0;entryX=0.5;entryY=0;entryDx=0;entryDy=0;" parent="1" source="6ZHbFeOYInT8uudLEGYI-177" target="6ZHbFeOYInT8uudLEGYI-180" edge="1">
          <mxGeometry width="50" height="50" relative="1" as="geometry">
            <mxPoint x="-1020" y="2295" as="sourcePoint" />
            <mxPoint x="-1105.955062336452" y="2326.273416448603" as="targetPoint" />
          </mxGeometry>
        </mxCell>
        <mxCell id="6ZHbFeOYInT8uudLEGYI-182" value="A?" style="rounded=0;whiteSpace=wrap;html=1;strokeColor=default;align=center;verticalAlign=middle;fontFamily=Helvetica;fontSize=12;fontColor=default;fillColor=default;" parent="1" vertex="1">
          <mxGeometry x="-750" y="2245" width="40" height="20" as="geometry" />
        </mxCell>
        <mxCell id="6ZHbFeOYInT8uudLEGYI-183" value="runToPlayer" style="rounded=0;whiteSpace=wrap;html=1;strokeColor=default;align=center;verticalAlign=middle;fontFamily=Helvetica;fontSize=12;fontColor=default;fillColor=default;" parent="1" vertex="1">
          <mxGeometry x="-680" y="2325" width="80" height="40" as="geometry" />
        </mxCell>
        <mxCell id="6ZHbFeOYInT8uudLEGYI-184" value="" style="endArrow=classic;html=1;rounded=0;fontFamily=Helvetica;fontSize=12;fontColor=default;exitX=0.5;exitY=1;exitDx=0;exitDy=0;" parent="1" source="6ZHbFeOYInT8uudLEGYI-182" target="6ZHbFeOYInT8uudLEGYI-183" edge="1">
          <mxGeometry width="50" height="50" relative="1" as="geometry">
            <mxPoint x="-490" y="2145" as="sourcePoint" />
            <mxPoint x="-440" y="2095" as="targetPoint" />
          </mxGeometry>
        </mxCell>
        <mxCell id="6ZHbFeOYInT8uudLEGYI-185" value="ifRange" style="ellipse;whiteSpace=wrap;html=1;rounded=0;strokeColor=default;align=center;verticalAlign=middle;fontFamily=Helvetica;fontSize=12;fontColor=default;fillColor=default;" parent="1" vertex="1">
          <mxGeometry x="-790" y="2325" width="80" height="40" as="geometry" />
        </mxCell>
        <mxCell id="6ZHbFeOYInT8uudLEGYI-186" value="" style="endArrow=classic;html=1;rounded=0;fontFamily=Helvetica;fontSize=12;fontColor=default;exitX=0.5;exitY=1;exitDx=0;exitDy=0;" parent="1" source="6ZHbFeOYInT8uudLEGYI-182" target="6ZHbFeOYInT8uudLEGYI-185" edge="1">
          <mxGeometry width="50" height="50" relative="1" as="geometry">
            <mxPoint x="-720" y="2295" as="sourcePoint" />
            <mxPoint x="-663" y="2345" as="targetPoint" />
          </mxGeometry>
        </mxCell>
        <mxCell id="6ZHbFeOYInT8uudLEGYI-187" value="findPlayer" style="rounded=0;whiteSpace=wrap;html=1;strokeColor=default;align=center;verticalAlign=middle;fontFamily=Helvetica;fontSize=12;fontColor=default;fillColor=default;" parent="1" vertex="1">
          <mxGeometry x="-1340" y="2245" width="80" height="40" as="geometry" />
        </mxCell>
        <mxCell id="6ZHbFeOYInT8uudLEGYI-188" value="" style="endArrow=classic;html=1;rounded=0;fontFamily=Helvetica;fontSize=12;fontColor=default;entryX=0.5;entryY=0;entryDx=0;entryDy=0;exitX=0.5;exitY=1;exitDx=0;exitDy=0;" parent="1" source="6ZHbFeOYInT8uudLEGYI-175" target="6ZHbFeOYInT8uudLEGYI-187" edge="1">
          <mxGeometry width="50" height="50" relative="1" as="geometry">
            <mxPoint x="-1140" y="2085" as="sourcePoint" />
            <mxPoint x="-1068" y="2150" as="targetPoint" />
          </mxGeometry>
        </mxCell>
        <mxCell id="6ZHbFeOYInT8uudLEGYI-189" value="findPlayer" style="rounded=0;whiteSpace=wrap;html=1;strokeColor=default;align=center;verticalAlign=middle;fontFamily=Helvetica;fontSize=12;fontColor=default;fillColor=default;" parent="1" vertex="1">
          <mxGeometry x="-950" y="2235" width="80" height="40" as="geometry" />
        </mxCell>
        <mxCell id="6ZHbFeOYInT8uudLEGYI-190" value="" style="endArrow=classic;html=1;rounded=0;fontFamily=Helvetica;fontSize=12;fontColor=default;entryX=0.5;entryY=0;entryDx=0;entryDy=0;exitX=0.5;exitY=1;exitDx=0;exitDy=0;" parent="1" source="6ZHbFeOYInT8uudLEGYI-191" target="6ZHbFeOYInT8uudLEGYI-189" edge="1">
          <mxGeometry width="50" height="50" relative="1" as="geometry">
            <mxPoint x="-580" y="2145" as="sourcePoint" />
            <mxPoint x="-508" y="2210" as="targetPoint" />
          </mxGeometry>
        </mxCell>
        <mxCell id="6ZHbFeOYInT8uudLEGYI-191" value="A-&amp;gt;" style="rounded=0;whiteSpace=wrap;html=1;strokeColor=default;align=center;verticalAlign=middle;fontFamily=Helvetica;fontSize=12;fontColor=default;fillColor=default;" parent="1" vertex="1">
          <mxGeometry x="-830" y="2140" width="40" height="20" as="geometry" />
        </mxCell>
        <mxCell id="6ZHbFeOYInT8uudLEGYI-192" value="" style="endArrow=classic;html=1;rounded=0;fontFamily=Helvetica;fontSize=12;fontColor=default;entryX=0.5;entryY=0;entryDx=0;entryDy=0;exitX=0.5;exitY=1;exitDx=0;exitDy=0;" parent="1" source="6ZHbFeOYInT8uudLEGYI-191" target="6ZHbFeOYInT8uudLEGYI-182" edge="1">
          <mxGeometry width="50" height="50" relative="1" as="geometry">
            <mxPoint x="-800" y="2170" as="sourcePoint" />
            <mxPoint x="-900" y="2245" as="targetPoint" />
          </mxGeometry>
        </mxCell>
        <mxCell id="6ZHbFeOYInT8uudLEGYI-198" value="-&amp;gt;" style="rounded=0;whiteSpace=wrap;html=1;strokeColor=default;align=center;verticalAlign=middle;fontFamily=Helvetica;fontSize=12;fontColor=default;fillColor=default;" parent="1" vertex="1">
          <mxGeometry x="-600" y="1840" width="40" height="20" as="geometry" />
        </mxCell>
        <mxCell id="6ZHbFeOYInT8uudLEGYI-199" value="" style="endArrow=classic;html=1;rounded=0;fontFamily=Helvetica;fontSize=12;fontColor=default;exitX=0.5;exitY=1;exitDx=0;exitDy=0;entryX=0.5;entryY=0;entryDx=0;entryDy=0;" parent="1" source="6ZHbFeOYInT8uudLEGYI-198" target="6ZHbFeOYInT8uudLEGYI-170" edge="1">
          <mxGeometry width="50" height="50" relative="1" as="geometry">
            <mxPoint x="-670" y="1750" as="sourcePoint" />
            <mxPoint x="-510" y="1810" as="targetPoint" />
          </mxGeometry>
        </mxCell>
        <mxCell id="6ZHbFeOYInT8uudLEGYI-217" value="?" style="rounded=0;whiteSpace=wrap;html=1;strokeColor=default;align=center;verticalAlign=middle;fontFamily=Helvetica;fontSize=12;fontColor=default;fillColor=default;" parent="1" vertex="1">
          <mxGeometry x="-240" y="2030" width="40" height="20" as="geometry" />
        </mxCell>
        <mxCell id="6ZHbFeOYInT8uudLEGYI-218" value="" style="endArrow=classic;html=1;rounded=0;fontFamily=Helvetica;fontSize=12;fontColor=default;exitX=0.5;exitY=1;exitDx=0;exitDy=0;entryX=0.5;entryY=0;entryDx=0;entryDy=0;" parent="1" source="6ZHbFeOYInT8uudLEGYI-217" target="6ZHbFeOYInT8uudLEGYI-225" edge="1">
          <mxGeometry width="50" height="50" relative="1" as="geometry">
            <mxPoint x="-460" y="2020" as="sourcePoint" />
            <mxPoint x="-527.8119921510054" y="2053.3589941132536" as="targetPoint" />
          </mxGeometry>
        </mxCell>
        <mxCell id="6ZHbFeOYInT8uudLEGYI-219" value="" style="endArrow=classic;html=1;rounded=0;fontFamily=Helvetica;fontSize=12;fontColor=default;exitX=0.5;exitY=1;exitDx=0;exitDy=0;entryX=0.5;entryY=0;entryDx=0;entryDy=0;" parent="1" source="6ZHbFeOYInT8uudLEGYI-225" target="6ZHbFeOYInT8uudLEGYI-223" edge="1">
          <mxGeometry width="50" height="50" relative="1" as="geometry">
            <mxPoint x="-350" y="2190" as="sourcePoint" />
            <mxPoint x="-247.50486855379268" y="2240.038948430344" as="targetPoint" />
          </mxGeometry>
        </mxCell>
        <mxCell id="6ZHbFeOYInT8uudLEGYI-220" value="" style="endArrow=classic;html=1;rounded=0;fontFamily=Helvetica;fontSize=12;fontColor=default;entryX=0.5;entryY=0;entryDx=0;entryDy=0;" parent="1" source="6ZHbFeOYInT8uudLEGYI-217" target="6ZHbFeOYInT8uudLEGYI-229" edge="1">
          <mxGeometry width="50" height="50" relative="1" as="geometry">
            <mxPoint x="-470" y="2010" as="sourcePoint" />
            <mxPoint x="-61.333333333333485" y="2180.0000000000005" as="targetPoint" />
          </mxGeometry>
        </mxCell>
        <mxCell id="6ZHbFeOYInT8uudLEGYI-223" value="attack" style="rounded=0;whiteSpace=wrap;html=1;strokeColor=default;align=center;verticalAlign=middle;fontFamily=Helvetica;fontSize=12;fontColor=default;fillColor=default;" parent="1" vertex="1">
          <mxGeometry x="-350" y="2290" width="80" height="40" as="geometry" />
        </mxCell>
        <mxCell id="6ZHbFeOYInT8uudLEGYI-224" value="ifSkillOnCD" style="ellipse;whiteSpace=wrap;html=1;rounded=0;strokeColor=default;align=center;verticalAlign=middle;fontFamily=Helvetica;fontSize=12;fontColor=default;fillColor=default;" parent="1" vertex="1">
          <mxGeometry x="-480" y="2290" width="80" height="40" as="geometry" />
        </mxCell>
        <mxCell id="6ZHbFeOYInT8uudLEGYI-225" value="-&amp;gt;" style="rounded=0;whiteSpace=wrap;html=1;strokeColor=default;align=center;verticalAlign=middle;fontFamily=Helvetica;fontSize=12;fontColor=default;fillColor=default;" parent="1" vertex="1">
          <mxGeometry x="-390" y="2190" width="40" height="20" as="geometry" />
        </mxCell>
        <mxCell id="6ZHbFeOYInT8uudLEGYI-226" value="" style="endArrow=classic;html=1;rounded=0;fontFamily=Helvetica;fontSize=12;fontColor=default;entryX=0.5;entryY=0;entryDx=0;entryDy=0;exitX=0.25;exitY=1;exitDx=0;exitDy=0;" parent="1" source="6ZHbFeOYInT8uudLEGYI-225" target="6ZHbFeOYInT8uudLEGYI-224" edge="1">
          <mxGeometry width="50" height="50" relative="1" as="geometry">
            <mxPoint x="-430" y="2250" as="sourcePoint" />
            <mxPoint x="-380" y="2200" as="targetPoint" />
          </mxGeometry>
        </mxCell>
        <mxCell id="6ZHbFeOYInT8uudLEGYI-229" value="skillOn" style="rounded=0;whiteSpace=wrap;html=1;strokeColor=default;align=center;verticalAlign=middle;fontFamily=Helvetica;fontSize=12;fontColor=default;fillColor=default;" parent="1" vertex="1">
          <mxGeometry x="-100" y="2180" width="80" height="40" as="geometry" />
        </mxCell>
        <mxCell id="6ZHbFeOYInT8uudLEGYI-234" value="" style="endArrow=classic;html=1;rounded=0;fontFamily=Helvetica;fontSize=12;fontColor=default;exitX=0.5;exitY=1;exitDx=0;exitDy=0;entryX=0.5;entryY=0;entryDx=0;entryDy=0;" parent="1" source="6ZHbFeOYInT8uudLEGYI-198" target="6ZHbFeOYInT8uudLEGYI-217" edge="1">
          <mxGeometry width="50" height="50" relative="1" as="geometry">
            <mxPoint x="-210" y="2060" as="sourcePoint" />
            <mxPoint x="-360" y="2200" as="targetPoint" />
          </mxGeometry>
        </mxCell>
        <mxCell id="6ZHbFeOYInT8uudLEGYI-236" value="" style="endArrow=classic;html=1;rounded=0;fontFamily=Helvetica;fontSize=12;fontColor=default;exitX=0.5;exitY=1;exitDx=0;exitDy=0;entryX=0.5;entryY=0;entryDx=0;entryDy=0;" parent="1" source="6ZHbFeOYInT8uudLEGYI-238" target="6ZHbFeOYInT8uudLEGYI-263" edge="1">
          <mxGeometry width="50" height="50" relative="1" as="geometry">
            <mxPoint x="490" y="1900" as="sourcePoint" />
            <mxPoint x="530" y="2000.0000000000005" as="targetPoint" />
          </mxGeometry>
        </mxCell>
        <mxCell id="6ZHbFeOYInT8uudLEGYI-237" value="ifSkillFarOnCD" style="ellipse;whiteSpace=wrap;html=1;rounded=0;strokeColor=default;align=center;verticalAlign=middle;fontFamily=Helvetica;fontSize=12;fontColor=default;fillColor=default;" parent="1" vertex="1">
          <mxGeometry x="290" y="2040" width="80" height="40" as="geometry" />
        </mxCell>
        <mxCell id="6ZHbFeOYInT8uudLEGYI-238" value="-&amp;gt;" style="rounded=0;whiteSpace=wrap;html=1;strokeColor=default;align=center;verticalAlign=middle;fontFamily=Helvetica;fontSize=12;fontColor=default;fillColor=default;" parent="1" vertex="1">
          <mxGeometry x="710" y="1810" width="40" height="20" as="geometry" />
        </mxCell>
        <mxCell id="6ZHbFeOYInT8uudLEGYI-239" value="" style="endArrow=classic;html=1;rounded=0;fontFamily=Helvetica;fontSize=12;fontColor=default;entryX=1;entryY=0;entryDx=0;entryDy=0;exitX=0.25;exitY=1;exitDx=0;exitDy=0;" parent="1" source="6ZHbFeOYInT8uudLEGYI-238" target="6ZHbFeOYInT8uudLEGYI-275" edge="1">
          <mxGeometry width="50" height="50" relative="1" as="geometry">
            <mxPoint x="670" y="1870" as="sourcePoint" />
            <mxPoint x="720" y="1820" as="targetPoint" />
          </mxGeometry>
        </mxCell>
        <mxCell id="6ZHbFeOYInT8uudLEGYI-240" value="A?" style="rounded=0;whiteSpace=wrap;html=1;strokeColor=default;align=center;verticalAlign=middle;fontFamily=Helvetica;fontSize=12;fontColor=default;fillColor=default;" parent="1" vertex="1">
          <mxGeometry x="750" y="2110" width="40" height="20" as="geometry" />
        </mxCell>
        <mxCell id="6ZHbFeOYInT8uudLEGYI-241" value="" style="endArrow=classic;html=1;rounded=0;fontFamily=Helvetica;fontSize=12;fontColor=default;exitX=0.5;exitY=1;exitDx=0;exitDy=0;" parent="1" source="6ZHbFeOYInT8uudLEGYI-240" target="6ZHbFeOYInT8uudLEGYI-245" edge="1">
          <mxGeometry width="50" height="50" relative="1" as="geometry">
            <mxPoint x="1360" y="1925" as="sourcePoint" />
            <mxPoint x="1192.1880078490092" y="1948.3589941132432" as="targetPoint" />
          </mxGeometry>
        </mxCell>
        <mxCell id="6ZHbFeOYInT8uudLEGYI-242" value="" style="endArrow=classic;html=1;rounded=0;fontFamily=Helvetica;fontSize=12;fontColor=default;exitX=0.5;exitY=1;exitDx=0;exitDy=0;entryX=0.5;entryY=0;entryDx=0;entryDy=0;" parent="1" source="6ZHbFeOYInT8uudLEGYI-245" target="6ZHbFeOYInT8uudLEGYI-247" edge="1">
          <mxGeometry width="50" height="50" relative="1" as="geometry">
            <mxPoint x="789.2" y="2218.12" as="sourcePoint" />
            <mxPoint x="760" y="2310" as="targetPoint" />
          </mxGeometry>
        </mxCell>
        <mxCell id="6ZHbFeOYInT8uudLEGYI-243" value="" style="endArrow=classic;html=1;rounded=0;fontFamily=Helvetica;fontSize=12;fontColor=default;exitX=0.5;exitY=1;exitDx=0;exitDy=0;entryX=0.5;entryY=0;entryDx=0;entryDy=0;" parent="1" source="6ZHbFeOYInT8uudLEGYI-240" target="6ZHbFeOYInT8uudLEGYI-261" edge="1">
          <mxGeometry width="50" height="50" relative="1" as="geometry">
            <mxPoint x="1360" y="1925" as="sourcePoint" />
            <mxPoint x="1078.5714285714284" y="2035" as="targetPoint" />
          </mxGeometry>
        </mxCell>
        <mxCell id="6ZHbFeOYInT8uudLEGYI-244" value="i&lt;span style=&quot;background-color: initial;&quot;&gt;fNeedWalkToPlayer&lt;/span&gt;" style="ellipse;whiteSpace=wrap;html=1;rounded=0;strokeColor=default;align=center;verticalAlign=middle;fontFamily=Helvetica;fontSize=12;fontColor=default;fillColor=default;" parent="1" vertex="1">
          <mxGeometry x="480" y="2315" width="80" height="40" as="geometry" />
        </mxCell>
        <mxCell id="6ZHbFeOYInT8uudLEGYI-245" value="A-&amp;gt;" style="rounded=0;whiteSpace=wrap;html=1;strokeColor=default;align=center;verticalAlign=middle;fontFamily=Helvetica;fontSize=12;fontColor=default;fillColor=default;" parent="1" vertex="1">
          <mxGeometry x="600" y="2210" width="40" height="20" as="geometry" />
        </mxCell>
        <mxCell id="6ZHbFeOYInT8uudLEGYI-246" value="" style="endArrow=classic;html=1;rounded=0;fontFamily=Helvetica;fontSize=12;fontColor=default;exitX=0.5;exitY=1;exitDx=0;exitDy=0;entryX=0.5;entryY=0;entryDx=0;entryDy=0;" parent="1" source="6ZHbFeOYInT8uudLEGYI-245" target="6ZHbFeOYInT8uudLEGYI-244" edge="1">
          <mxGeometry width="50" height="50" relative="1" as="geometry">
            <mxPoint x="820" y="2290" as="sourcePoint" />
            <mxPoint x="870" y="2240" as="targetPoint" />
          </mxGeometry>
        </mxCell>
        <mxCell id="6ZHbFeOYInT8uudLEGYI-247" value="A?" style="rounded=0;whiteSpace=wrap;html=1;strokeColor=default;align=center;verticalAlign=middle;fontFamily=Helvetica;fontSize=12;fontColor=default;fillColor=default;" parent="1" vertex="1">
          <mxGeometry x="630" y="2315" width="40" height="20" as="geometry" />
        </mxCell>
        <mxCell id="6ZHbFeOYInT8uudLEGYI-248" value="walkToPlayer" style="rounded=0;whiteSpace=wrap;html=1;strokeColor=default;align=center;verticalAlign=middle;fontFamily=Helvetica;fontSize=12;fontColor=default;fillColor=default;" parent="1" vertex="1">
          <mxGeometry x="650" y="2385" width="80" height="40" as="geometry" />
        </mxCell>
        <mxCell id="6ZHbFeOYInT8uudLEGYI-249" value="" style="endArrow=classic;html=1;rounded=0;fontFamily=Helvetica;fontSize=12;fontColor=default;exitX=0.5;exitY=1;exitDx=0;exitDy=0;" parent="1" source="6ZHbFeOYInT8uudLEGYI-247" target="6ZHbFeOYInT8uudLEGYI-248" edge="1">
          <mxGeometry width="50" height="50" relative="1" as="geometry">
            <mxPoint x="920" y="2215" as="sourcePoint" />
            <mxPoint x="970" y="2165" as="targetPoint" />
          </mxGeometry>
        </mxCell>
        <mxCell id="6ZHbFeOYInT8uudLEGYI-250" value="ifNearPlayer" style="ellipse;whiteSpace=wrap;html=1;rounded=0;strokeColor=default;align=center;verticalAlign=middle;fontFamily=Helvetica;fontSize=12;fontColor=default;fillColor=default;" parent="1" vertex="1">
          <mxGeometry x="540" y="2385" width="80" height="40" as="geometry" />
        </mxCell>
        <mxCell id="6ZHbFeOYInT8uudLEGYI-251" value="" style="endArrow=classic;html=1;rounded=0;fontFamily=Helvetica;fontSize=12;fontColor=default;exitX=0.5;exitY=1;exitDx=0;exitDy=0;entryX=0.5;entryY=0;entryDx=0;entryDy=0;" parent="1" source="6ZHbFeOYInT8uudLEGYI-247" target="6ZHbFeOYInT8uudLEGYI-250" edge="1">
          <mxGeometry width="50" height="50" relative="1" as="geometry">
            <mxPoint x="690" y="2365" as="sourcePoint" />
            <mxPoint x="604.0449376635479" y="2396.273416448603" as="targetPoint" />
          </mxGeometry>
        </mxCell>
        <mxCell id="6ZHbFeOYInT8uudLEGYI-252" value="A?" style="rounded=0;whiteSpace=wrap;html=1;strokeColor=default;align=center;verticalAlign=middle;fontFamily=Helvetica;fontSize=12;fontColor=default;fillColor=default;" parent="1" vertex="1">
          <mxGeometry x="960" y="2315" width="40" height="20" as="geometry" />
        </mxCell>
        <mxCell id="6ZHbFeOYInT8uudLEGYI-253" value="runToPlayer" style="rounded=0;whiteSpace=wrap;html=1;strokeColor=default;align=center;verticalAlign=middle;fontFamily=Helvetica;fontSize=12;fontColor=default;fillColor=default;" parent="1" vertex="1">
          <mxGeometry x="1030" y="2395" width="80" height="40" as="geometry" />
        </mxCell>
        <mxCell id="6ZHbFeOYInT8uudLEGYI-254" value="" style="endArrow=classic;html=1;rounded=0;fontFamily=Helvetica;fontSize=12;fontColor=default;exitX=0.5;exitY=1;exitDx=0;exitDy=0;" parent="1" source="6ZHbFeOYInT8uudLEGYI-252" target="6ZHbFeOYInT8uudLEGYI-253" edge="1">
          <mxGeometry width="50" height="50" relative="1" as="geometry">
            <mxPoint x="1220" y="2215" as="sourcePoint" />
            <mxPoint x="1270" y="2165" as="targetPoint" />
          </mxGeometry>
        </mxCell>
        <mxCell id="6ZHbFeOYInT8uudLEGYI-255" value="ifFarRange" style="ellipse;whiteSpace=wrap;html=1;rounded=0;strokeColor=default;align=center;verticalAlign=middle;fontFamily=Helvetica;fontSize=12;fontColor=default;fillColor=default;" parent="1" vertex="1">
          <mxGeometry x="920" y="2395" width="80" height="40" as="geometry" />
        </mxCell>
        <mxCell id="6ZHbFeOYInT8uudLEGYI-256" value="" style="endArrow=classic;html=1;rounded=0;fontFamily=Helvetica;fontSize=12;fontColor=default;exitX=0.5;exitY=1;exitDx=0;exitDy=0;" parent="1" source="6ZHbFeOYInT8uudLEGYI-252" target="6ZHbFeOYInT8uudLEGYI-255" edge="1">
          <mxGeometry width="50" height="50" relative="1" as="geometry">
            <mxPoint x="990" y="2365" as="sourcePoint" />
            <mxPoint x="1047" y="2415" as="targetPoint" />
          </mxGeometry>
        </mxCell>
        <mxCell id="6ZHbFeOYInT8uudLEGYI-257" value="findPlayer" style="rounded=0;whiteSpace=wrap;html=1;strokeColor=default;align=center;verticalAlign=middle;fontFamily=Helvetica;fontSize=12;fontColor=default;fillColor=default;" parent="1" vertex="1">
          <mxGeometry x="370" y="2315" width="80" height="40" as="geometry" />
        </mxCell>
        <mxCell id="6ZHbFeOYInT8uudLEGYI-258" value="" style="endArrow=classic;html=1;rounded=0;fontFamily=Helvetica;fontSize=12;fontColor=default;entryX=0.5;entryY=0;entryDx=0;entryDy=0;exitX=0.5;exitY=1;exitDx=0;exitDy=0;" parent="1" source="6ZHbFeOYInT8uudLEGYI-245" target="6ZHbFeOYInT8uudLEGYI-257" edge="1">
          <mxGeometry width="50" height="50" relative="1" as="geometry">
            <mxPoint x="570" y="2155" as="sourcePoint" />
            <mxPoint x="642" y="2220" as="targetPoint" />
          </mxGeometry>
        </mxCell>
        <mxCell id="6ZHbFeOYInT8uudLEGYI-259" value="findPlayer" style="rounded=0;whiteSpace=wrap;html=1;strokeColor=default;align=center;verticalAlign=middle;fontFamily=Helvetica;fontSize=12;fontColor=default;fillColor=default;" parent="1" vertex="1">
          <mxGeometry x="760" y="2305" width="80" height="40" as="geometry" />
        </mxCell>
        <mxCell id="6ZHbFeOYInT8uudLEGYI-260" value="" style="endArrow=classic;html=1;rounded=0;fontFamily=Helvetica;fontSize=12;fontColor=default;entryX=0.5;entryY=0;entryDx=0;entryDy=0;exitX=0.5;exitY=1;exitDx=0;exitDy=0;" parent="1" source="6ZHbFeOYInT8uudLEGYI-261" target="6ZHbFeOYInT8uudLEGYI-259" edge="1">
          <mxGeometry width="50" height="50" relative="1" as="geometry">
            <mxPoint x="1130" y="2215" as="sourcePoint" />
            <mxPoint x="1202" y="2280" as="targetPoint" />
          </mxGeometry>
        </mxCell>
        <mxCell id="6ZHbFeOYInT8uudLEGYI-261" value="A-&amp;gt;" style="rounded=0;whiteSpace=wrap;html=1;strokeColor=default;align=center;verticalAlign=middle;fontFamily=Helvetica;fontSize=12;fontColor=default;fillColor=default;" parent="1" vertex="1">
          <mxGeometry x="880" y="2210" width="40" height="20" as="geometry" />
        </mxCell>
        <mxCell id="6ZHbFeOYInT8uudLEGYI-262" value="" style="endArrow=classic;html=1;rounded=0;fontFamily=Helvetica;fontSize=12;fontColor=default;entryX=0.5;entryY=0;entryDx=0;entryDy=0;exitX=0.5;exitY=1;exitDx=0;exitDy=0;" parent="1" source="6ZHbFeOYInT8uudLEGYI-261" target="6ZHbFeOYInT8uudLEGYI-252" edge="1">
          <mxGeometry width="50" height="50" relative="1" as="geometry">
            <mxPoint x="910" y="2240" as="sourcePoint" />
            <mxPoint x="810" y="2315" as="targetPoint" />
          </mxGeometry>
        </mxCell>
        <mxCell id="6ZHbFeOYInT8uudLEGYI-263" value="-&amp;gt;" style="rounded=0;whiteSpace=wrap;html=1;strokeColor=default;align=center;verticalAlign=middle;fontFamily=Helvetica;fontSize=12;fontColor=default;fillColor=default;" parent="1" vertex="1">
          <mxGeometry x="810" y="1930" width="40" height="20" as="geometry" />
        </mxCell>
        <mxCell id="6ZHbFeOYInT8uudLEGYI-264" value="" style="endArrow=classic;html=1;rounded=0;fontFamily=Helvetica;fontSize=12;fontColor=default;exitX=0.5;exitY=1;exitDx=0;exitDy=0;entryX=0.5;entryY=0;entryDx=0;entryDy=0;" parent="1" source="6ZHbFeOYInT8uudLEGYI-263" target="6ZHbFeOYInT8uudLEGYI-240" edge="1">
          <mxGeometry width="50" height="50" relative="1" as="geometry">
            <mxPoint x="740" y="1840" as="sourcePoint" />
            <mxPoint x="900" y="1900" as="targetPoint" />
          </mxGeometry>
        </mxCell>
        <mxCell id="6ZHbFeOYInT8uudLEGYI-269" value="skillFar" style="rounded=0;whiteSpace=wrap;html=1;strokeColor=default;align=center;verticalAlign=middle;fontFamily=Helvetica;fontSize=12;fontColor=default;fillColor=default;" parent="1" vertex="1">
          <mxGeometry x="1150" y="2110" width="80" height="40" as="geometry" />
        </mxCell>
        <mxCell id="6ZHbFeOYInT8uudLEGYI-274" value="" style="endArrow=classic;html=1;rounded=0;fontFamily=Helvetica;fontSize=12;fontColor=default;exitX=0.5;exitY=1;exitDx=0;exitDy=0;entryX=0.5;entryY=0;entryDx=0;entryDy=0;" parent="1" source="6ZHbFeOYInT8uudLEGYI-263" target="6ZHbFeOYInT8uudLEGYI-269" edge="1">
          <mxGeometry width="50" height="50" relative="1" as="geometry">
            <mxPoint x="1200" y="2150" as="sourcePoint" />
            <mxPoint x="1190" y="2120.0000000000005" as="targetPoint" />
          </mxGeometry>
        </mxCell>
        <mxCell id="6ZHbFeOYInT8uudLEGYI-275" value="!" style="ellipse;whiteSpace=wrap;html=1;aspect=fixed;" parent="1" vertex="1">
          <mxGeometry x="520" y="1930" width="20" height="20" as="geometry" />
        </mxCell>
        <mxCell id="6ZHbFeOYInT8uudLEGYI-277" value="" style="endArrow=classic;html=1;rounded=0;fontFamily=Helvetica;fontSize=12;fontColor=default;entryX=0.684;entryY=0.014;entryDx=0;entryDy=0;exitX=0;exitY=1;exitDx=0;exitDy=0;entryPerimeter=0;" parent="1" source="6ZHbFeOYInT8uudLEGYI-275" target="6ZHbFeOYInT8uudLEGYI-237" edge="1">
          <mxGeometry width="50" height="50" relative="1" as="geometry">
            <mxPoint x="730" y="1840" as="sourcePoint" />
            <mxPoint x="547" y="1943" as="targetPoint" />
          </mxGeometry>
        </mxCell>
      </root>
    </mxGraphModel>
  </diagram>
</mxfile>
